<svg xmlns="http://www.w3.org/2000/svg" width="835.45" height="162.13" viewBox="0 0 835.45 162.13">
  <defs>
    <style>
      .cls-1 {
        fill: #192b64;
      }

      .cls-2 {
        fill: #fff;
      }

      .cls-3 {
        fill: #ff8000;
      }

      .cls-4, .cls-6 {
        fill: #0088bf;
      }

      .cls-5 {
        fill: #335ae1;
      }

      .cls-6 {
        fill-rule: evenodd;
      }
    </style>
  </defs>
  <g id="レイヤー_2" data-name="レイヤー 2">
    <g id="レイアウト">
      <polygon class="cls-1" points="800.19 153.88 0 153.88 0 68.54 800.19 68.54 833 111.21 800.19 153.88"/>
      <path class="cls-2" d="M293.69,94.19a13.4,13.4,0,0,1-.31,1.69c-.07.24-.1.35-.18.35a1,1,0,0,1-.32-.15,5.33,5.33,0,0,0-.85-.29,15.15,15.15,0,0,0,.6-3.78,4.85,4.85,0,0,0,0-.92c.39,0,.86.1,1.21.16.16,0,.22.08.22.17a.56.56,0,0,1-.06.23,1.33,1.33,0,0,0-.09.49c0,.23,0,.46-.06.71h.7v-.8a14.89,14.89,0,0,0-.12-2.18c.53,0,1,0,1.49.11.14,0,.23.07.23.14a.86.86,0,0,1-.09.3A6.28,6.28,0,0,0,296,92v.83c.76,0,1.05,0,1.12,0s.16,0,.16.14v1a8.67,8.67,0,0,0,1.6-2.93,6.47,6.47,0,0,0,.26-1.15c.39.06.94.14,1.36.24.16.05.24.11.24.21a.43.43,0,0,1-.14.29,2,2,0,0,0-.29.66c-.13.39-.29.78-.46,1.18h3.36c1.1,0,1.45,0,1.53,0s.2,0,.2.19c0,.39,0,.78,0,1.13a44.72,44.72,0,0,1-.42,6.94c-.23,1.55-.87,2.28-2.15,2.28-.26,0-.67,0-1,0s-.45,0-.54-.5a3.9,3.9,0,0,0-.34-1.09,8.94,8.94,0,0,0,1.69.15c.64,0,.86-.43,1-1.2a47.36,47.36,0,0,0,.44-6.23c-1,3.63-2.45,6.2-4.95,8.14-.17.13-.27.2-.36.2s-.17-.09-.3-.28a3,3,0,0,0-.8-.79,12.68,12.68,0,0,0,5.14-7.58h-1A11.27,11.27,0,0,1,298.09,99c-.16.16-.26.23-.35.23s-.15-.07-.28-.25a3.85,3.85,0,0,0-.81-.73,8.91,8.91,0,0,0,3.25-4.51h-.77a9.25,9.25,0,0,1-1.07,1.46c-.16.17-.23.25-.3.25s-.16-.08-.32-.24a4.84,4.84,0,0,0-.82-.6l.37-.39-1,0v2.32c.41-.2.86-.41,1.34-.67,0,.26,0,.64,0,1s0,.45-.37.65-.67.36-1,.52v2.44c0,1.65,0,2.47,0,2.54s0,.16-.15.16h-1.17c-.15,0-.16,0-.16-.16s0-.89,0-2.52V98.64l-1,.4a2.39,2.39,0,0,0-.46.26l-.24.14a.23.23,0,0,1-.23-.15c-.18-.42-.35-1-.49-1.4a13.63,13.63,0,0,0,1.35-.38l1.09-.38V94.19Z"/>
      <path class="cls-2" d="M312.35,93.81c.11-.14.16-.14.29-.07a11.5,11.5,0,0,1,2.06,1.47l.09.12-.09.17-.66.93-.12.1-.13-.09a11.19,11.19,0,0,0-2-1.57l-.12-.1.11-.18Zm.2,7a29,29,0,0,0,1.4-3.35c.2.2.52.51.79.74s.32.24.32.36a1,1,0,0,1-.09.33,25.9,25.9,0,0,1-1.37,3.19,2.48,2.48,0,0,0-.24.56c0,.12-.07.19-.18.19a.44.44,0,0,1-.27-.09,9,9,0,0,1-1.11-.79A6.42,6.42,0,0,0,312.55,100.86Zm.36-10.67c.12-.14.16-.14.29-.07a11.8,11.8,0,0,1,2,1.5l.09.13-.09.17-.65.91c-.11.15-.14.13-.26,0a11.25,11.25,0,0,0-2-1.63l-.1-.11.1-.17Zm3.44,7.74a8.18,8.18,0,0,0-.08-1.16c.47,0,.9,0,1.33.11.17,0,.28.07.28.17a1.28,1.28,0,0,1-.09.32,3.36,3.36,0,0,0-.06.7c0,2.3-.65,3.63-2.06,4.71-.18.13-.28.2-.36.2s-.18-.07-.34-.24a3.39,3.39,0,0,0-.86-.68C315.74,101.12,316.33,100.05,316.35,97.93ZM322,93.05c.14-.1.18-.09.31,0a15.1,15.1,0,0,1,2.31,2.54c.09.13.09.14-.08.26l-.81.63-.19.1-.12-.1c-.2-.31-.41-.63-.66-1-2,.25-4.16.48-6,.62a1.7,1.7,0,0,0-.62.13l-.26.07c-.07,0-.14-.08-.19-.21a12.49,12.49,0,0,1-.27-1.33c.6,0,1,0,1.43,0h.44a14.54,14.54,0,0,0,.87-2h-.4c-1.4,0-1.88,0-2,0s-.16,0-.16-.16v-1c0-.15,0-.16.16-.16s.58,0,2,0H319v-.25a7.27,7.27,0,0,0-.09-1.38,14.93,14.93,0,0,1,1.53.1c.15,0,.24.09.24.16a.8.8,0,0,1-.09.3,2,2,0,0,0-.07.8v.27h1.86c1.41,0,1.9,0,2,0s.16,0,.16.16v1c0,.14,0,.16-.16.16s-.58,0-2,0h-2.67a20.66,20.66,0,0,1-.85,1.89c1-.09,2-.17,2.88-.26a6.82,6.82,0,0,0-.59-.61c-.11-.11-.1-.13.06-.24Zm-3.17,5.67a13.55,13.55,0,0,0-.1-1.93,10.72,10.72,0,0,1,1.4.11c.15,0,.22.08.22.16a1.64,1.64,0,0,1-.09.35,7.17,7.17,0,0,0-.07,1.3v2c0,1.12,0,1.6,0,1.69s0,.15-.16.15h-1.1c-.14,0-.15,0-.15-.15s0-.57,0-1.69Zm4,2.37c0,.2,0,.29.1.35a.88.88,0,0,0,.39,0c.2,0,.29,0,.37-.17s.16-.48.18-1.5a2.72,2.72,0,0,0,.81.37c.36.12.36.15.34.52,0,1.07-.19,1.46-.43,1.72s-.61.44-1.53.44a2.1,2.1,0,0,1-1.2-.22c-.26-.15-.4-.43-.4-1V98.16a9.61,9.61,0,0,0-.08-1.47,13.21,13.21,0,0,1,1.36.1c.17,0,.25.09.25.17a.8.8,0,0,1-.09.3,3.22,3.22,0,0,0-.07,1.1Z"/>
      <path class="cls-2" d="M335.12,93.73c-.94,0-1.76,0-2.38.07-.19,0-.25-.09-.28-.29s-.1-1-.13-1.46a23.59,23.59,0,0,0,2.78.1h5.15a1.34,1.34,0,0,0,.79-.14l.25-.09.24.1a5.49,5.49,0,0,1,1,1,.5.5,0,0,1,.11.29.38.38,0,0,1-.14.27,1.61,1.61,0,0,0-.33.57,17,17,0,0,1-2.81,4.69,16.14,16.14,0,0,1-4.1,3.43.67.67,0,0,1-.38.13.51.51,0,0,1-.37-.16,4.4,4.4,0,0,0-1.34-.79,13.9,13.9,0,0,0,4.72-3.61,12.09,12.09,0,0,0,2.44-4.11Zm10-2.77a1.56,1.56,0,1,1-1.55-1.55A1.54,1.54,0,0,1,345.09,91Zm-2.41,0a.86.86,0,1,0,.86-.86A.83.83,0,0,0,342.68,91Z"/>
      <path class="cls-2" d="M354.78,100.25v.85c0,.25-.06.28-.32.29a10.84,10.84,0,0,1-1.14,0c-.25,0-.32,0-.31-.21,0-.75.05-1.78.05-2.88V94.77c0-.78,0-1.56,0-2.4,0-.14.06-.2.16-.2.76,0,1.61,0,2.58,0h3.44c.94,0,2,0,2.71,0,.16,0,.2.08.19.29,0,.71,0,1.49,0,2.34v3.45c0,1.26.05,2,.08,2.74,0,.21-.08.25-.28.25-.43,0-.89,0-1.33,0-.17,0-.18,0-.18-.23v-.77Zm5.6-6.51h-5.62v5h5.62Z"/>
      <path class="cls-2" d="M374.75,93.45a11.67,11.67,0,0,0-.19-2.54,10.58,10.58,0,0,1,1.86.29c.19,0,.28.13.28.26l-.09.23a2.61,2.61,0,0,0-.19,1.29v1.48l3.77-.88a2,2,0,0,0,1-.41l.21-.09.2.09a5.87,5.87,0,0,1,1.07.93l.13.26a.41.41,0,0,1-.19.29,2,2,0,0,0-.45.56,14.92,14.92,0,0,1-2.29,3.12.59.59,0,0,1-.38.22.45.45,0,0,1-.27-.1,4.93,4.93,0,0,0-1.2-.55A12.12,12.12,0,0,0,380.39,95l-4,1V99.3c0,.76.26,1,1.82,1a20.83,20.83,0,0,0,3.49-.32c.21,0,.22.07.25.29a7.11,7.11,0,0,1,.13,1.21c0,.15-.09.21-.3.22a28.84,28.84,0,0,1-3.45.17c-2.76,0-3.61-.59-3.61-2.54V96.43l-.93.24a17.09,17.09,0,0,0-2,.62l-.18.06c-.1,0-.15-.07-.23-.23a10.47,10.47,0,0,1-.57-1.47,22.08,22.08,0,0,0,2.71-.51l1.23-.3Z"/>
      <path class="cls-2" d="M398.6,91.91a2.09,2.09,0,0,0,1-.13l.16-.06.24.12a5.07,5.07,0,0,1,.94,1L401,93a.38.38,0,0,1-.18.28,2.68,2.68,0,0,0-.54.64,21.77,21.77,0,0,1-1.85,2.7,33.51,33.51,0,0,1,4,3.49l.12.2-.1.22a8.14,8.14,0,0,1-1,1l-.17.09-.21-.12a26.63,26.63,0,0,0-3.75-3.58,20.62,20.62,0,0,1-4.85,3.81.89.89,0,0,1-.33.12l-.25-.13a3.82,3.82,0,0,0-1.21-.94,17.37,17.37,0,0,0,5.08-3.68,17.74,17.74,0,0,0,2.72-3.62h-3.73c-.75,0-1.5,0-2.28.09-.11,0-.16-.09-.19-.25a8.53,8.53,0,0,1-.13-1.5c.78.06,1.51.06,2.44.06Z"/>
      <path class="cls-2" d="M418.06,99.86c0,.16-.09.23-.28.26a7.69,7.69,0,0,1-1,.07c-.13,0-.19-.08-.19-.23,0-.52,0-1.24,0-1.76-1.28.67-1.74,1.23-1.74,1.92s.49,1,2,1a24.53,24.53,0,0,0,3.6-.29c.13,0,.19,0,.2.16a6.66,6.66,0,0,1,.13,1.18c0,.18,0,.28-.16.28a25.52,25.52,0,0,1-3.58.18c-2.37,0-3.62-.7-3.62-2.38,0-1.38.86-2.39,3-3.52,0-.74-.21-1-.86-1a3.52,3.52,0,0,0-2,1,18.06,18.06,0,0,0-1.45,1.58l-.17.13-.16-.1a6.63,6.63,0,0,1-.82-1l-.06-.13.1-.16a14.62,14.62,0,0,0,3-3.58c-.68,0-1.46,0-2.31,0-.13,0-.18-.07-.2-.23s-.11-.77-.15-1.2a30.64,30.64,0,0,0,3.32,0,9.84,9.84,0,0,0,.43-1.24,3.38,3.38,0,0,0,.1-.88,8.4,8.4,0,0,1,1.65.41.24.24,0,0,1,.17.24l-.1.22a1.12,1.12,0,0,0-.24.35c-.09.2-.16.38-.33.77a23.1,23.1,0,0,0,2.62-.44c.16,0,.2,0,.23.14a4.7,4.7,0,0,1,.15,1c0,.15,0,.2-.25.23-1.08.16-2.32.32-3.37.43A15.23,15.23,0,0,1,414.69,95l0,0a2.79,2.79,0,0,1,1.44-.45,1.59,1.59,0,0,1,1.76,1.56c.56-.26,1.39-.64,2.12-1a4.52,4.52,0,0,0,1.1-.78,8.43,8.43,0,0,1,1,1.27.56.56,0,0,1,.12.32c0,.11-.08.17-.22.2a4.51,4.51,0,0,0-.88.21c-.94.34-1.88.65-3.1,1.16Z"/>
      <path class="cls-2" d="M431.78,97.11c-1.3,0-1.75,0-1.84,0s-.15,0-.15-.14v-1.4c0-.13,0-.14.15-.14s.54,0,1.84,0h8.7c1.3,0,1.75,0,1.84,0s.15,0,.15.14V97c0,.13,0,.14-.15.14s-.54,0-1.84,0Z"/>
      <path class="cls-2" d="M452.31,92.49a10.84,10.84,0,0,1-1.57,1.86c-.16.16-.26.24-.33.24s-.17-.08-.32-.28a2.71,2.71,0,0,0-.74-.67,8.59,8.59,0,0,0,2.52-3.17,3.81,3.81,0,0,0,.26-.77,9,9,0,0,1,1.31.32c.13,0,.2.11.2.2s0,.13-.1.19a.76.76,0,0,0-.25.32l-.21.44h6.45c1.42,0,1.89,0,2,0s.17,0,.17.16v1.06c0,.14,0,.16-.17.16s-.56,0-2,0Zm-.2,4.9c.15-.13.18-.14.29,0,.62.42,1.27.86,1.93,1.37a13.05,13.05,0,0,0,.84-1.06,4,4,0,0,0,.43-.8,5.39,5.39,0,0,1,1.25.59c.13.1.18.19.18.26s-.07.16-.18.23a1.34,1.34,0,0,0-.39.42,13.22,13.22,0,0,1-1,1.24c.64.52,1.29,1.08,2,1.69l.11.17-.08.16-.81.84-.2.13-.15-.09c-.6-.66-1.22-1.28-1.87-1.88a13.33,13.33,0,0,1-3.57,2.17,1.05,1.05,0,0,1-.36.11c-.1,0-.17-.08-.32-.33a3.13,3.13,0,0,0-.73-.83,11,11,0,0,0,3.89-2c-.6-.49-1.24-1-1.9-1.42-.13-.08-.13-.11,0-.25Zm.16-.75c-1.4,0-1.89,0-2,0s-.17,0-.17-.16V95.43c0-.14,0-.16.17-.16s.58,0,2,0h5.63c1.43,0,1.91,0,2,0s.18,0,.18.18a14.59,14.59,0,0,0,0,1.86,15.57,15.57,0,0,0,.28,2.8c.18.82.24,1.18.53,1.18s.3-.47.4-1.85a2.4,2.4,0,0,0,1,.62c.3.12.29.16.22.63-.25,1.66-.62,2.29-1.52,2.29s-1.53-.65-2-2.28a16.51,16.51,0,0,1-.39-4.06Zm2-2.15c-1.37,0-1.83,0-1.9,0s-.16,0-.16-.17v-1c0-.14,0-.16.16-.16s.53,0,1.9,0h4.07c1.36,0,1.84,0,1.92,0s.16,0,.16.16v1c0,.16,0,.17-.16.17s-.56,0-1.92,0Z"/>
      <path class="cls-2" d="M472.11,99.88a2.29,2.29,0,0,0,1.23,1.2,8.47,8.47,0,0,0,2.71.3,54.21,54.21,0,0,0,6.27-.36,2.85,2.85,0,0,0-.39,1.14c-.07.46-.07.46-.54.47-1.84.12-3.6.16-5.12.16a10.16,10.16,0,0,1-3.39-.4,3.21,3.21,0,0,1-1.46-1.31l-1.37,1.28a2.52,2.52,0,0,0-.29.29c-.06.1-.12.14-.2.14a.28.28,0,0,1-.2-.18,13,13,0,0,1-.6-1.36,6.34,6.34,0,0,0,.84-.46,7.06,7.06,0,0,0,1.11-.9V96.67h-.6c-.75,0-.94,0-1,0s-.18,0-.18-.17v-1.1c0-.14,0-.16.18-.16s.26,0,1,0h.83c.75,0,1,0,1,0s.16,0,.16.16,0,.49,0,1.37Zm-2.05-9.52.18-.07.14.09a10.87,10.87,0,0,1,1.78,2.12c.08.13.08.16-.09.29l-.81.62-.19.1L471,93.4a11.12,11.12,0,0,0-1.73-2.26c-.12-.1-.1-.14,0-.24Zm11.13,6.86c0,.88,0,1.56,0,2a1.36,1.36,0,0,1-.36,1.14c-.23.19-.55.33-1.47.35-.43,0-.42,0-.49-.33a2.22,2.22,0,0,0-.38-1c.35,0,.67,0,.91,0s.39-.1.39-.42v-.69h-2.08v.39c0,1.1,0,1.59,0,1.68s0,.17-.14.17h-1.07c-.14,0-.16,0-.16-.17s0-.58,0-1.68v-.39h-1.88v.55c0,1.1,0,1.62,0,1.7s0,.16-.16.16h-1.05c-.16,0-.17,0-.17-.16s0-.57,0-1.69v-4c0-1.13,0-1.62,0-1.72s0-.16.17-.16.56,0,1.92,0h.78a14.9,14.9,0,0,0-1.24-.84l-.09-.11.12-.15.7-.47H475c-1.36,0-1.81,0-1.89,0s-.16,0-.16-.15v-1c0-.15,0-.17.16-.17s.53,0,1.89,0h4.29a1.07,1.07,0,0,0,.37,0,.43.43,0,0,1,.22-.06c.11,0,.24.1.59.42s.45.47.45.62-.09.22-.25.27a1.63,1.63,0,0,0-.55.36A18.61,18.61,0,0,1,478.58,93h.53c1.38,0,1.85,0,1.95,0s.16,0,.16.16,0,.68,0,1.85Zm-4.76-2.06v-1h-1.88v1Zm0,2.1v-1h-1.88v1Zm-.59-5.81a10.81,10.81,0,0,1,1.45,1.14,12.48,12.48,0,0,0,1.45-1.14Zm1.9,2.68v1h2.08v-1Zm2.08,3.13v-1h-2.08v1Z"/>
      <path class="cls-2" d="M499.82,91.91H500c1,0,1.3,0,1.38,0s.16,0,.16.16v.82c0,.15,0,.16-.16.16s-.36,0-1.38,0h-.41c-.08.49-.14.93-.21,1.39,0,.14,0,.17-.19.17s-.42,0-1.44,0h-6.33c-1,0-1.35,0-1.42,0s-.22,0-.18-.19c.16-.46.29-.91.41-1.37H490c-1,0-1.3,0-1.38,0s-.15,0-.15-.16V92c0-.14,0-.16.15-.16s.36,0,1.38,0h.51c.1-.48.18-1,.23-1.42,0-.14,0-.17.19-.17s.51,0,1.81,0h5.13c1.4,0,1.9,0,2,0s.17,0,.16.17Zm-6.13,9.45c.14.06.2.13.2.22s-.09.13-.22.16a2.47,2.47,0,0,0-.59.26,11.48,11.48,0,0,1-3.29,1,1.29,1.29,0,0,1-.3,0c-.16,0-.22-.08-.35-.31a3.46,3.46,0,0,0-.65-.87,12.08,12.08,0,0,0,3.25-.68,3.57,3.57,0,0,0,.68-.37A11.54,11.54,0,0,1,493.69,101.36Zm3.68-6.3c1.4,0,1.9,0,2,0s.16,0,.16.16,0,.49,0,1.41v2.6c0,.94,0,1.33,0,1.41s0,.16-.16.16-.59,0-2,0h-4.72c-1.42,0-1.91,0-2,0s-.16,0-.16-.16,0-.47,0-1.41V96.6c0-.92,0-1.33,0-1.41s0-.16.16-.16.59,0,2,0ZM494,93.64c.05-.22.13-.45.18-.69h-2.44c-.07.23-.13.47-.2.69Zm-2.11,2.43v.63h6.19v-.63Zm6.19,2.15v-.64H491.9v.64Zm0,.88H491.9v.65h6.19ZM494.4,92c0-.21.1-.45.13-.68h-2.4L492,92Zm3.68,1.69c.05-.23.1-.46.14-.69h-2.63l-.17.69Zm-2.18-2.37c0,.23-.06.47-.11.68h2.6c0-.21.06-.45.11-.68Zm1.28,9.62c.17-.09.2-.09.35,0a10.8,10.8,0,0,0,3.94.94,4,4,0,0,0-.71.93c-.13.21-.19.28-.36.28a2.07,2.07,0,0,1-.32,0,11.89,11.89,0,0,1-3.94-1.42c-.13-.09-.13-.14.07-.23Z"/>
      <path class="cls-2" d="M514.63,91.29a4.53,4.53,0,0,0-.18-1.06,14,14,0,0,1,1.69.21c.25,0,.41.14.41.27a.63.63,0,0,1-.13.33,1.34,1.34,0,0,0-.12.42c0,.19,0,.38,0,.93,1.56-.06,3.05-.08,4.44-.08.17,0,.2,0,.21.22a10.09,10.09,0,0,1,0,1.1c0,.16-.07.2-.24.18-1.51,0-2.91,0-4.41,0,0,.88,0,1.8,0,2.68a4.62,4.62,0,0,1,.21,1.43,5.37,5.37,0,0,1-2.57,4.66,1.35,1.35,0,0,1-.56.28.77.77,0,0,1-.43-.22,3.33,3.33,0,0,0-1.1-.58,4.82,4.82,0,0,0,3-3.17,1.66,1.66,0,0,1-1.36.57,2,2,0,0,1-2-2.2,2.1,2.1,0,0,1,2.18-2.17,1.76,1.76,0,0,1,1.09.29c0-.51,0-1,0-1.47-1.82.1-3.85.27-5,.43-.32,0-.55.17-.68.17s-.2,0-.25-.2a11.89,11.89,0,0,1-.36-1.46,9.89,9.89,0,0,0,1.76,0c.88-.08,2.74-.19,4.48-.29C514.64,92,514.64,91.68,514.63,91.29Zm-1.85,5.84a.9.9,0,0,0,.92,1,.94.94,0,0,0,1-1,.87.87,0,0,0-1-.92A.92.92,0,0,0,512.78,97.13Z"/>
      <path class="cls-2" d="M533.44,95.89a4.38,4.38,0,0,1,2.3-.65,3.35,3.35,0,0,1,3.58,3.47c0,2.41-2,4-5,4-1.82,0-2.91-.78-2.91-2.12a1.91,1.91,0,0,1,2-1.76,2.64,2.64,0,0,1,2.72,2.11,2.18,2.18,0,0,0,1.47-2.2,2.11,2.11,0,0,0-2.27-2.18A5.87,5.87,0,0,0,531.63,98c-.42.38-.83.8-1.26,1.23-.1.1-.17.16-.25.16l-.21-.13a6.23,6.23,0,0,1-.85-.94c-.09-.11,0-.21.07-.33a35.21,35.21,0,0,0,3.42-3.19c.89-.92,1.57-1.65,2.24-2.47-.87.16-1.89.36-2.79.55a5.3,5.3,0,0,0-.61.17l-.28.08a.33.33,0,0,1-.32-.25,7.51,7.51,0,0,1-.51-1.56,6.77,6.77,0,0,0,1.35,0c.88-.09,2.15-.27,3.27-.49a4,4,0,0,0,.8-.22l.27-.11a.5.5,0,0,1,.33.11,5.13,5.13,0,0,1,1,.93.53.53,0,0,1,.16.34.38.38,0,0,1-.25.35,2.32,2.32,0,0,0-.63.46c-1.06,1-2,2-3.12,3.09Zm0,4.12c-.42,0-.69.24-.69.55s.39.75,1.25.75a3.48,3.48,0,0,0,.67-.06C534.5,100.45,534.07,100,533.46,100Z"/>
      <path class="cls-2" d="M264.17,115a3.87,3.87,0,0,0,1.41-.32l2,1.6c-.31.46-.39.63-1.84,4.2-2.13,5.19-6.25,9.22-9.8,10.82a30.94,30.94,0,0,0-3.15-2.84,16.33,16.33,0,0,0,9.63-10h-5.24a27.22,27.22,0,0,1-4.35,4.9,21.17,21.17,0,0,0-3.08-2.46,23.21,23.21,0,0,0,7-9.33L260.3,113c.3.13.38.23.38.4s-.38.36-.59.38c-.33.61-.46.84-.65,1.18Zm-.59-3.77a19.91,19.91,0,0,1,2.06,2.13,14.9,14.9,0,0,0-1.7,1.26,20.91,20.91,0,0,0-2.12-2.15Zm3.32-.25a18.38,18.38,0,0,1,2.1,2.36c-.5.29-1.28.86-1.8,1.21a12.82,12.82,0,0,0-2-2.39Z"/>
      <path class="cls-2" d="M275.68,128.52v1h-3.95V114H288.2v15.47h-3.91v-1Zm8.61-3.55v-7.42h-8.61V125Z"/>
      <rect class="cls-2" x="291.79" y="119.53" width="18.28" height="3.78"/>
      <path class="cls-2" d="M320.72,115c.33.08.46.13.46.36s-.25.35-.55.4c-.48,2.37-2.08,9.18-5.42,13.28a21.87,21.87,0,0,0-3.7-1.73,25.11,25.11,0,0,0,5.19-13.4Zm5.08-1.56a43.8,43.8,0,0,1,6.3,13,27.41,27.41,0,0,0-3.8,1.83,34.86,34.86,0,0,0-5.65-12.77Zm2.56-.6a14.7,14.7,0,0,1,2,2.39c-.57.44-.84.67-1.57,1.26a23.13,23.13,0,0,0-2-2.48Zm2.1-1.45a13.19,13.19,0,0,1,2,2.29,10.57,10.57,0,0,0-1.6,1.32,18.78,18.78,0,0,0-2-2.42Z"/>
      <path class="cls-2" d="M340.69,113.24c.32,0,.53.05.53.3s-.23.36-.47.44v4.66a14.08,14.08,0,0,1-4.91,10.93,11.63,11.63,0,0,0-3.09-2.54,11.28,11.28,0,0,0,3.15-3.7,12.34,12.34,0,0,0,.9-4.83v-5.42Zm5.53-.21c.23,0,.46,0,.46.28s-.08.23-.46.48v9.85a22.85,22.85,0,0,0,5-5.46,13.25,13.25,0,0,0,1.95,3.43c-2,3.06-5.35,5.65-7.2,7.08a13.56,13.56,0,0,0-1.14,1.05l-2.62-1.68a11.7,11.7,0,0,0,.1-1.33V112.84Z"/>
      <path class="cls-2" d="M369.45,113a2.91,2.91,0,0,0,1.28-.27l2.23,1.51c-.13.57-.5,3-.61,3.49a17.53,17.53,0,0,1-9.5,13.24,13.78,13.78,0,0,0-3-3c2.27-1,7.88-3.34,8.64-11.45h-9v4.87H355.6V113Z"/>
      <path class="cls-2" d="M378.71,112.42a25.88,25.88,0,0,1,5.36,3.43,21.68,21.68,0,0,0-2.27,3.21,21.23,21.23,0,0,0-5.32-3.48Zm-1.85,14.27a25,25,0,0,0,15.59-11.43,23.48,23.48,0,0,0,2.31,3.36c-3,4.86-8.65,9.35-15.1,11.66,0,.24-.07.55-.38.55s-.3-.17-.38-.34Z"/>
      <path class="cls-2" d="M408.82,118.73h6.34v3.59H408.5c-.23,1.56-.9,6.18-7.29,8.72a18,18,0,0,0-2.88-3.11c1.6-.44,5.44-1.7,6.14-5.61h-7.74v-3.59h8v-1.85a42.11,42.11,0,0,1-5,.5,19.16,19.16,0,0,0-1.6-3.42c.28,0,.61,0,1.11,0,3.72,0,8.6-1,11-2.44l2.8,2.61c.13.1.17.17.17.27,0,.27-.28.32-.38.32a3.4,3.4,0,0,1-.44-.09,23.27,23.27,0,0,1-3.59,1.31Z"/>
      <path class="cls-2" d="M422.59,115.64l3.3-.44c.25,0,.51-.07.51.21s-.23.36-.36.46l.57,2.86,5.46-1.07a1.4,1.4,0,0,0,.86-.47l2.12,1.41c-.65,1.05-1.17,2-3.42,6.3a24,24,0,0,0-2.94-1.42A15.54,15.54,0,0,0,430.2,121l-3,.65L428.9,130l-3.15.63L424,122.34l-4,.86-.76-3,4.1-.8Z"/>
      <path class="cls-2" d="M441.73,112.42a25.88,25.88,0,0,1,5.36,3.43,21.68,21.68,0,0,0-2.27,3.21,21.41,21.41,0,0,0-5.32-3.48Zm-1.85,14.27a25.07,25.07,0,0,0,15.59-11.43,22.67,22.67,0,0,0,2.31,3.36c-3,4.86-8.65,9.35-15.11,11.66,0,.24-.06.55-.37.55s-.3-.17-.38-.34Z"/>
      <path class="cls-2" d="M472.93,116a2.91,2.91,0,0,0,1.47-.32l1.93,1.94a6.22,6.22,0,0,0-1,.88,43.64,43.64,0,0,1-4.47,4.39v8H467v-5.4a26,26,0,0,1-5.42,2.52,19,19,0,0,0-2-3.32,24,24,0,0,0,10.07-5.3H462V116h8.17a26.84,26.84,0,0,0-5.08-2l1.76-2.73a31.65,31.65,0,0,1,5.74,2.12A13.66,13.66,0,0,0,471,116Zm.37,5.71a37.16,37.16,0,0,1,5.21,3.62,24.21,24.21,0,0,0-2.14,2.83,30.37,30.37,0,0,0-5.29-3.88Z"/>
      <path class="cls-2" d="M487.73,113.24c.32,0,.53.05.53.3s-.23.36-.46.44v4.66a14.09,14.09,0,0,1-4.92,10.93,11.63,11.63,0,0,0-3.09-2.54,11.15,11.15,0,0,0,3.15-3.7,12.4,12.4,0,0,0,.91-4.83v-5.42Zm5.53-.21c.23,0,.46,0,.46.28s-.08.23-.46.48v9.85a22.85,22.85,0,0,0,5-5.46,13.55,13.55,0,0,0,2,3.43c-2,3.06-5.35,5.65-7.2,7.08a13.56,13.56,0,0,0-1.14,1.05l-2.62-1.68a11.7,11.7,0,0,0,.1-1.33V112.84Z"/>
      <path class="cls-2" d="M512.71,112.09l4,.17c.17,0,.42,0,.42.27s-.25.36-.46.46V116h3.55v3.76h-3.55c-.08,2.75-.4,5.57-2.5,8a12.25,12.25,0,0,1-4.37,3.25,16.39,16.39,0,0,0-3-2.83,9.9,9.9,0,0,0,5-3.87c.88-1.49.9-2.56,1-4.58h-3.55v4.43h-3.86V119.8h-3.7V116h3.7v-3.81l3.74.15c.31,0,.54,0,.54.3s-.21.33-.42.44V116h3.49Z"/>
      <rect class="cls-2" x="522.85" y="119.53" width="18.28" height="3.78"/>
      <path class="cls-2" d="M560.9,117.78a.55.55,0,0,1,.25.4.34.34,0,0,1-.38.3,2,2,0,0,1-.54-.11,32.6,32.6,0,0,1-10.64,3.8v2.92c0,1.52.55,1.52,3.49,1.52a73.1,73.1,0,0,0,8.34-.42,22.87,22.87,0,0,0-.58,3.86c-1.33,0-2.82.09-4.16.09-7.38,0-7.78-.13-8.51-.34-1.77-.5-2.61-1.47-2.61-4.31V112.3l4.08.23c.27,0,.48,0,.48.27s-.27.38-.53.51v5.29c3.64-.8,6.77-2.2,8.12-3.42Zm-1.72-5.12a18.4,18.4,0,0,1,2.18,2.12c-.08.08-1.26,1.2-1.41,1.36a25.56,25.56,0,0,0-2.2-2.12Zm2-1.62a20.4,20.4,0,0,1,2.1,2.06,14,14,0,0,0-1.43,1.38,15.94,15.94,0,0,0-2.14-2.08Z"/>
      <path class="cls-2" d="M566.65,116.75v-3.63H577.3a4.71,4.71,0,0,0,1.58-.23l1.85,1.7A5.9,5.9,0,0,0,580,116a31.9,31.9,0,0,1-2.65,5.4,46.84,46.84,0,0,1,6.31,5.42c-.72.71-2.19,2.41-2.8,3.21a29.75,29.75,0,0,0-5.65-5.73,24.23,24.23,0,0,1-7.88,6,13.61,13.61,0,0,0-2.71-3.26c2.9-1,8.83-4,10.82-10.32Z"/>
      <polygon class="cls-1" points="797.68 162.13 835.45 111.21 797.68 60.3 794.52 62.65 830.55 111.21 794.52 159.78 797.68 162.13 797.68 162.13"/>
      <circle class="cls-3" cx="16.29" cy="13.59" r="10.96"/>
      <polygon class="cls-3" points="14.22 29.13 16.29 31.91 18.35 29.13 18.07 25.64 14.5 25.64 14.22 29.13"/>
      <path class="cls-3" d="M30.32,35.11c-.49-2.93-3-7-4.75-8.88A1.4,1.4,0,0,0,24,26.11a14.2,14.2,0,0,1-2.57,1.25l-5.1,6.91-5.11-6.91a13.79,13.79,0,0,1-2.56-1.25A1.42,1.42,0,0,0,7,26.23c-1.78,1.9-4.26,5.95-4.75,8.88-1.2,7.22,6.51,9.82,14,9.82S31.53,42.33,30.32,35.11Zm-14,5a1.31,1.31,0,1,1,1.31-1.31A1.32,1.32,0,0,1,16.29,40.1Z"/>
      <path class="cls-4" d="M732,28.48l-5.47-2.89L723.66,19a.86.86,0,0,0-.8-.53h-6.78V35.84h3.5a4.74,4.74,0,0,1,9.47,0h3.4V29.25A.86.86,0,0,0,732,28.48Zm-14.26-2.56v-5.6h4.89l2.09,5.6Z"/>
      <path class="cls-4" d="M689.08,17.11V35.84h3.72a4.74,4.74,0,0,1,9.47,0h12.82V14.49h-23.4A2.61,2.61,0,0,0,689.08,17.11Z"/>
      <path class="cls-4" d="M725.58,35.84a1.27,1.27,0,1,1-2.53,0h-2.58a3.85,3.85,0,1,0,7.69,0Z"/>
      <path class="cls-4" d="M724.32,32a3.85,3.85,0,0,0-3.85,3.85h2.58a1.27,1.27,0,1,1,2.53,0h2.58A3.85,3.85,0,0,0,724.32,32Z"/>
      <path class="cls-4" d="M698.81,35.84a1.27,1.27,0,1,1-2.54,0h-2.58a3.85,3.85,0,0,0,7.7,0Z"/>
      <path class="cls-4" d="M697.54,32a3.85,3.85,0,0,0-3.85,3.85h2.58a1.27,1.27,0,0,1,2.54,0h2.58A3.86,3.86,0,0,0,697.54,32Z"/>
      <polygon class="cls-4" points="751.87 49.95 740.15 39.8 740.15 60.09 751.87 49.95"/>
      <rect class="cls-4" x="676.27" y="42.73" width="63.88" height="14.44"/>
      <path class="cls-2" d="M703.73,51.87c.85,0,1.14,0,1.2,0s.12,0,.12.13v.67c0,.12,0,.14-.12.14s-.35,0-1.2,0h-.11c0,1,0,1.62,0,1.67s0,.12-.13.12h-.77c-.11,0-.12,0-.12-.12s0-.65,0-1.67h-.35c-.85,0-1.13,0-1.19,0s-.13,0-.13-.14V52c0-.12,0-.13.13-.13s.34,0,1.19,0h.35v-.76h-.1c-.75,0-1,0-1.07,0s-.12,0-.12-.11,0-.37,0-1V48.36c0-.67,0-1,0-1s0-.12.12-.12.32,0,1.07,0h.1v-.71h-.28c-.86,0-1.12,0-1.19,0s-.13,0-.13-.14v-.69c0-.1,0-.11.13-.11s.33,0,1.19,0h.28c0-.46,0-.78-.08-1.15a6.86,6.86,0,0,1,1,.08c.11,0,.17,0,.17.11l-.06.2a2,2,0,0,0-.07.73v0h.18c.85,0,1.13,0,1.2,0s.13,0,.13.11v.69c0,.13,0,.14-.13.14s-.34,0-1.19,0h-.19v.71h.08c.76,0,1,0,1.07,0s.12,0,.12.12v0A6.59,6.59,0,0,0,707.26,45a2,2,0,0,0,.26-.62c.39.06.71.11,1.06.19.1,0,.17.08.17.14a.25.25,0,0,1-.17.21,6.8,6.8,0,0,0,2.81,2.25,2.55,2.55,0,0,0-.43.72c-.08.19-.12.27-.19.27a.84.84,0,0,1-.25-.12,8.46,8.46,0,0,1-.93-.65v.68c0,.11,0,.12-.13.12s-.26,0-.93,0h-.94c-.68,0-.86,0-.93,0s-.12,0-.12-.12v-.6a6.5,6.5,0,0,1-.83.63c-.12.09-.18.13-.24.13s-.12-.07-.22-.24a3.08,3.08,0,0,0-.37-.47c0,.16,0,.43,0,.82V50c0,.67,0,1,0,1s0,.11-.12.11-.31,0-1.07,0h-.08v.76Zm-1-3.06V48h-.48v.85Zm0,1.58v-.87h-.48v.87Zm.84-2.43v.85h.49V48Zm.49,1.56h-.49v.87h.49ZM707.94,52c0,.5,0,1.09,0,1.43s0,.65-.2.85a1,1,0,0,1-.65.2c-.34,0-.34,0-.4-.32a2.73,2.73,0,0,0-.2-.61l.35,0c.14,0,.2,0,.2-.25v-.87h-.77v.73c0,.81,0,1.21,0,1.26s0,.13-.13.13h-.69c-.11,0-.12,0-.12-.13s0-.41,0-1.25V50.23c0-.84,0-1.22,0-1.29s0-.11.12-.11.23,0,.81,0H707c.59,0,.75,0,.81,0s.12,0,.12.11,0,.51,0,1.38Zm-1.65-2.33v.64h.77v-.64Zm.77,2.06V51h-.77v.68Zm1.47-4.42h.87A6.88,6.88,0,0,1,708,45.73a8.09,8.09,0,0,1-1.26,1.53h1.75Zm-.14,3.07a7.89,7.89,0,0,0-.07-1.45c.34,0,.67,0,.93.06.09,0,.14,0,.14.12l-.07.23a6.48,6.48,0,0,0,0,1v1.08c0,.7,0,1,0,1.09s0,.12-.13.12h-.69c-.11,0-.12,0-.12-.12s0-.39,0-1.09Zm2.36,1.6c0,.6,0,1.12,0,1.58s-.08.62-.33.78a1.55,1.55,0,0,1-.92.18c-.34,0-.34,0-.41-.33a2.33,2.33,0,0,0-.22-.66,4.67,4.67,0,0,0,.57,0c.24,0,.31-.06.31-.33V50.08a9.82,9.82,0,0,0-.07-1.41,8.1,8.1,0,0,1,1,.08c.11,0,.17,0,.17.11l-.07.21a3.15,3.15,0,0,0-.06,1Z"/>
      <path class="cls-2" d="M714.63,52.1a1.76,1.76,0,0,0,.92.92,6.37,6.37,0,0,0,2,.22c1.42,0,3.09-.07,4.73-.23a2,2,0,0,0-.29.84c-.06.36-.06.36-.41.38-1.4.07-2.71.1-3.85.1a7.61,7.61,0,0,1-2.58-.31,2.13,2.13,0,0,1-1.07-1A13.81,13.81,0,0,1,713,54a1.13,1.13,0,0,0-.22.22l-.16.1-.16-.14a10.78,10.78,0,0,1-.45-1,5.51,5.51,0,0,0,.65-.34,6.94,6.94,0,0,0,.93-.71V49.67H713c-.59,0-.75,0-.8,0s-.14,0-.14-.13v-.83c0-.11,0-.12.14-.12s.21,0,.8,0h.67c.58,0,.76,0,.83,0s.12,0,.12.12,0,.37,0,1ZM713,44.86c.11-.07.14-.08.23,0a9.7,9.7,0,0,1,1.38,1.62c.05.09.05.13-.07.22l-.62.5-.13.06-.1-.07a9.71,9.71,0,0,0-1.35-1.71c-.08-.09-.07-.12,0-.2Zm3.83,4.74c-1.07,0-1.42,0-1.49,0s-.12,0-.12-.12v-.78c0-.11,0-.13.12-.13s.42,0,1.49,0h1a10.09,10.09,0,0,0,0-1.26h-.77c-1,0-1.39,0-1.46,0s-.11,0-.11-.12v-.77c0-.12,0-.13.11-.13s.4,0,1.34,0a5.44,5.44,0,0,0-.74-1.28c-.08-.1-.05-.14.07-.18l.74-.3c.15,0,.16,0,.23.05a6.33,6.33,0,0,1,.73,1.18c0,.11,0,.16-.12.21l-.83.32h1.63a10.56,10.56,0,0,0,.67-1.25,2.87,2.87,0,0,0,.19-.62,9.59,9.59,0,0,1,1.13.32l.15.16-.14.19a.89.89,0,0,0-.21.26,10.15,10.15,0,0,1-.57.94H720c1,0,1.39,0,1.45,0s.12,0,.12.13v.77c0,.11,0,.12-.12.12s-.42,0-1.45,0h-1a12,12,0,0,1-.07,1.26h1.33c1.07,0,1.43,0,1.5,0s.12,0,.12.13v.78c0,.11,0,.12-.12.12s-.43,0-1.5,0h-1.14A4.5,4.5,0,0,0,722,51.67a2.82,2.82,0,0,0-.43.76c-.08.22-.12.31-.22.31a.75.75,0,0,1-.24-.06,4.9,4.9,0,0,1-2.66-2.26,4.36,4.36,0,0,1-2.36,2.21.61.61,0,0,1-.26.1c-.09,0-.13-.09-.24-.27a2.3,2.3,0,0,0-.52-.64c1.45-.55,2.22-1.11,2.55-2.22Z"/>
      <polygon class="cls-5" points="681.3 12.8 603.75 12.8 603.75 7.37 642.52 0 681.3 7.37 681.3 12.8"/>
      <rect class="cls-5" x="603.75" y="53.77" width="77.55" height="3.4"/>
      <rect class="cls-5" x="607.41" y="11.24" width="70.22" height="44.24"/>
      <path class="cls-2" d="M622.56,15.75a2.58,2.58,0,0,0,1.25-.17l.19-.07a.56.56,0,0,1,.31.15,6.45,6.45,0,0,1,1.17,1.26l.09.23a.5.5,0,0,1-.23.36,3.32,3.32,0,0,0-.67.79,29.34,29.34,0,0,1-2.3,3.37,42.12,42.12,0,0,1,5,4.36l.15.25a.47.47,0,0,1-.13.27,9.18,9.18,0,0,1-1.2,1.22l-.22.11-.25-.14A33,33,0,0,0,621,23.27,26,26,0,0,1,615,28a1.21,1.21,0,0,1-.42.14.38.38,0,0,1-.3-.16,4.82,4.82,0,0,0-1.52-1.17,22,22,0,0,0,6.34-4.59,22,22,0,0,0,3.39-4.52h-4.65c-.94,0-1.87,0-2.84.11-.15,0-.2-.11-.24-.3a10.63,10.63,0,0,1-.16-1.88c1,.08,1.87.08,3,.08Z"/>
      <path class="cls-2" d="M634.55,19a25.89,25.89,0,0,1,5.73,2.45.34.34,0,0,1,.19.47,10.46,10.46,0,0,1-.77,1.57c-.07.12-.14.2-.23.2l-.2-.09a19.74,19.74,0,0,0-4.74-2.31v4c0,1.17,0,2.23.08,3.53,0,.22-.08.27-.33.27a10.68,10.68,0,0,1-1.6,0c-.25,0-.34-.05-.34-.27,0-1.33.07-2.4.07-3.55V16.39a14.19,14.19,0,0,0-.18-2.66,12.27,12.27,0,0,1,2.25.29c.25.05.34.16.34.3a.94.94,0,0,1-.14.42,4.52,4.52,0,0,0-.13,1.69Z"/>
      <path class="cls-2" d="M645.62,19.06a.33.33,0,0,1,.47.12,10.07,10.07,0,0,1,1.55,2.67,1.8,1.8,0,0,1,.07.27c0,.11-.07.16-.22.25a7.56,7.56,0,0,1-1.15.56c-.25.09-.36,0-.45-.25a10.4,10.4,0,0,0-1.69-2.9C644.81,19.44,645.24,19.24,645.62,19.06Zm9.88.23c.15.11.24.2.24.31s-.06.2-.2.32a2.51,2.51,0,0,0-.54.92,21.54,21.54,0,0,1-2.72,4.79,14.55,14.55,0,0,1-3.71,3.48.82.82,0,0,1-.43.19l-.29-.12a4.07,4.07,0,0,0-1.53-.76,15.68,15.68,0,0,0,4.32-3.74,18.66,18.66,0,0,0,2.43-4.34,6.32,6.32,0,0,0,.42-1.91A8.71,8.71,0,0,1,655.5,19.29Zm-6.24-1.1c.2-.09.32-.07.46.15A10.25,10.25,0,0,1,651.11,21c.09.27.06.36-.18.48a7.31,7.31,0,0,1-1.24.56c-.2.07-.27,0-.36-.27a12.2,12.2,0,0,0-1.51-2.88C648.54,18.52,649,18.32,649.26,18.19Z"/>
      <path class="cls-2" d="M667.94,16.68a1.76,1.76,0,0,0,.9-.21l.24-.08a.55.55,0,0,1,.29.11,8.53,8.53,0,0,1,1.22,1,.6.6,0,0,1,.23.42.55.55,0,0,1-.21.38,2.24,2.24,0,0,0-.6.77,24.56,24.56,0,0,1-3.56,5.56A22.73,22.73,0,0,1,661,29.09a.46.46,0,0,1-.28.09.63.63,0,0,1-.42-.2,4.79,4.79,0,0,0-1.71-.83,20.82,20.82,0,0,0,6-4.59,18.37,18.37,0,0,0,3.33-5.11l-4.36.12a25.21,25.21,0,0,1-3.4,3.69.55.55,0,0,1-.38.2l-.27-.11a5,5,0,0,0-1.73-.77,21.16,21.16,0,0,0,4.84-5.35,7.6,7.6,0,0,0,1.07-2.43,8.66,8.66,0,0,1,2.1,1,.35.35,0,0,1,.18.3.36.36,0,0,1-.19.31,1.89,1.89,0,0,0-.45.48c-.2.31-.38.58-.6.9Z"/>
      <path class="cls-2" d="M629.58,46.08a10.13,10.13,0,0,1-2.36,3.6c-.16.18-.25.27-.34.27s-.18-.11-.34-.34a4.28,4.28,0,0,0-1.1-1.07,7.71,7.71,0,0,0,2.45-3.25,10.29,10.29,0,0,0,.58-3.95c0-.93,0-1.47,0-1.64-.63.35-1.3.69-2,1a1,1,0,0,1-.4.13c-.16,0-.21-.14-.36-.49a2.88,2.88,0,0,0-.72-1.06,19.51,19.51,0,0,0,7-4.34,4.81,4.81,0,0,0,.74-1c.68.09,1.37.2,1.89.32.22,0,.32.09.32.2s-.09.17-.28.25a20.7,20.7,0,0,0,7.56,4.34,3.45,3.45,0,0,0-.67,1.14c-.12.36-.18.5-.34.5a1.37,1.37,0,0,1-.4-.12A25.69,25.69,0,0,1,636,38v.66c0,.18,0,.2-.2.2s-.43,0-1.51,0H632.8c-1.08,0-1.4,0-1.51,0s-.2,0-.2-.2V38a23.25,23.25,0,0,1-2.41,1.55c.2,0,.81,0,2.34,0h5c1.7,0,2.29,0,2.4,0s.2,0,.2.18,0,.5,0,1.53v2.18c0,1,0,1.4,0,1.51s0,.18-.2.18-.7,0-2.4,0h-6.17a6,6,0,0,1-.27.88s.07,0,.18,0,.72,0,2.41,0h4.84c1.7,0,2.31,0,2.42,0s.21,0,.21.2,0,.49,0,1.06v1c0,1.77,0,2.09,0,2.18s0,.2-.21.2h-1.53c-.18,0-.2,0-.2-.2V50h-6.27v.47c0,.18,0,.2-.2.2H629.8c-.2,0-.22,0-.22-.2s0-.43,0-2.21v-.85c0-.77,0-1.13,0-1.26Zm7.22-3.17h-6.55c0,.32-.06.61-.09.9h6.64Zm-6.5-2v.83h6.5v-.83Zm1.17,7.72h6.27V47.39h-6.27Zm2.85-11h1.11a14.38,14.38,0,0,1-1.9-1.68,18.54,18.54,0,0,1-1.82,1.69Z"/>
      <path class="cls-2" d="M649,48.74c-1.75,0-2.34,0-2.45,0s-.22,0-.22-.18V47.52c0-.2,0-.22.22-.22s.7,0,2.45,0h2.9v-1h-1.52c-1.72,0-2.3,0-2.43,0s-.19,0-.19-.21,0-.54,0-1.57V42.31c0-1,0-1.44,0-1.54s0-.22.19-.22.71,0,2.43,0h1.52v-1h-2.06c-1.76,0-2.37,0-2.48,0s-.2,0-.2-.2V38.41c0-.2,0-.22.2-.22s.72,0,2.48,0h2.06V37.15h-5.48v3.22a32.19,32.19,0,0,1-.36,5.51,13,13,0,0,1-1.35,4.27c-.12.23-.19.34-.27.34s-.14-.09-.3-.29a5.18,5.18,0,0,0-1.12-1,9.58,9.58,0,0,0,1.28-3.48,31.78,31.78,0,0,0,.34-5.83c0-2.76,0-4,0-4.09s0-.2.19-.2.71,0,2.42,0h3.7v-.27a4.92,4.92,0,0,0-.1-1.25c.66,0,1.24,0,1.87.08.2,0,.29.1.29.21a1.58,1.58,0,0,1-.11.33,1.65,1.65,0,0,0-.09.64v.26h4c1.69,0,2.29,0,2.39,0s.18,0,.18.2V37c0,.18,0,.19-.18.19s-.7,0-2.39,0h-3.15v1.08h2.72c1.76,0,2.37,0,2.48,0s.2,0,.2.22v1.06c0,.18,0,.2-.2.2s-.72,0-2.48,0h-2.72v1h1.65c1.7,0,2.29,0,2.4,0s.21,0,.21.22,0,.54,0,1.54v2.31c0,1,0,1.46,0,1.57s0,.21-.21.21-.7,0-2.4,0h-1.65v1h3.29c1.77,0,2.38,0,2.47,0s.2,0,.2.22V48.6c0,.16,0,.18-.2.18s-.7,0-2.47,0h-3.29c0,1.14,0,1.73,0,1.8s0,.2-.19.2h-1.37c-.2,0-.22,0-.22-.2s0-.66,0-1.8Zm2.9-5.87v-1h-2.49v1Zm0,2.22V44h-2.49v1.05Zm1.71-3.24v1h2.55v-1ZM656.13,44h-2.55v1.05h2.55Z"/>
      <path class="cls-4" d="M593.64,28.48l-5.47-2.89L585.33,19a.88.88,0,0,0-.8-.53h-6.79V35.84h3.5a4.74,4.74,0,0,1,9.47,0h3.4V29.25A.86.86,0,0,0,593.64,28.48Zm-14.26-2.56v-5.6h4.89l2.09,5.6Z"/>
      <path class="cls-4" d="M550.74,17.11V35.84h3.73a4.73,4.73,0,1,1,9.46,0h12.82V14.49h-23.4A2.61,2.61,0,0,0,550.74,17.11Z"/>
      <path class="cls-4" d="M587.25,35.84a1.27,1.27,0,1,1-2.54,0h-2.58a3.85,3.85,0,1,0,7.69,0Z"/>
      <path class="cls-4" d="M586,32a3.85,3.85,0,0,0-3.85,3.85h2.58a1.27,1.27,0,1,1,2.54,0h2.57A3.85,3.85,0,0,0,586,32Z"/>
      <path class="cls-4" d="M560.47,35.84a1.27,1.27,0,0,1-2.54,0h-2.58a3.85,3.85,0,1,0,7.7,0Z"/>
      <path class="cls-4" d="M559.2,32a3.85,3.85,0,0,0-3.85,3.85h2.58a1.27,1.27,0,0,1,2.54,0h2.58A3.86,3.86,0,0,0,559.2,32Z"/>
      <polygon class="cls-2" points="613.53 49.95 614.17 49.2 600.83 37.65 600.83 41.74 536.95 41.74 536.95 58.15 600.83 58.15 600.83 62.25 615.03 49.95 614.17 49.2 613.53 49.95 612.88 49.2 602.8 57.94 602.8 57.17 602.8 56.19 538.92 56.19 538.92 43.71 602.8 43.71 602.8 41.96 612.88 50.69 613.53 49.95 612.88 49.2 613.53 49.95"/>
      <polygon class="cls-4" points="613.53 49.95 601.81 39.8 601.81 42.73 537.93 42.73 537.93 57.17 601.81 57.17 601.81 60.09 613.53 49.95"/>
      <path class="cls-2" d="M565.25,52c.81,0,1.08,0,1.14,0s.12,0,.12.12v.64c0,.12,0,.13-.12.13s-.33,0-1.14,0h-.11c0,1,0,1.54,0,1.58s0,.12-.12.12h-.73c-.11,0-.12,0-.12-.12s0-.62,0-1.58h-.32c-.82,0-1.09,0-1.15,0s-.11,0-.11-.13v-.64c0-.11,0-.12.11-.12s.33,0,1.15,0h.32v-.73h-.09c-.72,0-1,0-1,0s-.12,0-.12-.1,0-.35,0-1V48.61c0-.64,0-.92,0-1s0-.12.12-.12.3,0,1,0h.09v-.69H564c-.82,0-1.07,0-1.13,0s-.13,0-.13-.12v-.66c0-.1,0-.11.13-.11s.31,0,1.13,0h.26a9,9,0,0,0-.07-1.1,7.91,7.91,0,0,1,1,.07c.11,0,.17,0,.17.11l-.06.2a1.78,1.78,0,0,0-.07.69v0h.17c.81,0,1.08,0,1.15,0s.12,0,.12.11v.66c0,.11,0,.12-.12.12s-.33,0-1.14,0h-.18v.69h.08c.72,0,.94,0,1,0s.11,0,.11.12v0a6.33,6.33,0,0,0,2.27-2.24,1.79,1.79,0,0,0,.24-.59,9.8,9.8,0,0,1,1,.18c.09,0,.16.07.16.13a.25.25,0,0,1-.16.2,6.31,6.31,0,0,0,2.68,2.14,2.26,2.26,0,0,0-.41.7c-.08.17-.12.25-.18.25a.56.56,0,0,1-.24-.12,8.88,8.88,0,0,1-.9-.62v.65c0,.11,0,.12-.11.12s-.25,0-.89,0h-.9c-.65,0-.82,0-.89,0s-.11,0-.11-.12v-.56a9.71,9.71,0,0,1-.79.6c-.12.08-.18.12-.23.12s-.12-.07-.21-.23a3.38,3.38,0,0,0-.36-.45c0,.16,0,.41,0,.79v1.55c0,.64,0,.92,0,1s0,.1-.11.1-.3,0-1,0h-.08V52Zm-1-2.92v-.82h-.46V49Zm0,1.5v-.83h-.46v.83Zm.8-2.32V49h.47v-.82Zm.47,1.49h-.47v.83h.47ZM569.26,52c0,.47,0,1,0,1.36s0,.62-.19.81a.87.87,0,0,1-.62.19c-.32,0-.32,0-.38-.3a2.47,2.47,0,0,0-.19-.58l.33,0c.14,0,.19,0,.19-.24v-.83h-.73v.69c0,.78,0,1.16,0,1.21s0,.12-.13.12h-.65c-.11,0-.12,0-.12-.12s0-.4,0-1.2V50.39c0-.81,0-1.16,0-1.24s0-.1.12-.1.22,0,.77,0h.7c.56,0,.71,0,.77,0s.11,0,.11.1,0,.5,0,1.33Zm-1.57-2.23v.61h.73v-.61Zm.73,2v-.64h-.73v.64Zm1.41-4.21h.83a7,7,0,0,1-1.31-1.46,7.24,7.24,0,0,1-1.19,1.46h1.67Zm-.14,2.93a8.62,8.62,0,0,0-.06-1.39l.88,0c.09,0,.14.06.14.12l-.07.22a6,6,0,0,0,0,1v1c0,.67,0,1,0,1s0,.12-.12.12h-.66c-.11,0-.12,0-.12-.12s0-.36,0-1ZM572,52c0,.58,0,1.07,0,1.51s-.09.59-.32.75a1.63,1.63,0,0,1-.88.16c-.32,0-.32,0-.39-.31a2.13,2.13,0,0,0-.21-.63,4.27,4.27,0,0,0,.55,0c.22,0,.29-.06.29-.31v-3a8.91,8.91,0,0,0-.07-1.34c.32,0,.67,0,1,.07.1,0,.16.06.16.11l-.07.2a3.37,3.37,0,0,0,0,.95Z"/>
      <path class="cls-2" d="M575.66,52.18a1.61,1.61,0,0,0,.87.87,6.21,6.21,0,0,0,1.94.21c1.36,0,2.95-.07,4.52-.22a1.86,1.86,0,0,0-.29.81c-.05.33-.05.33-.39.35-1.33.08-2.58.1-3.67.1a7.24,7.24,0,0,1-2.46-.3,2.07,2.07,0,0,1-1-.93,11.07,11.07,0,0,1-1.08.92,2,2,0,0,0-.21.21l-.15.1-.15-.13a8.83,8.83,0,0,1-.43-1,5.88,5.88,0,0,0,.62-.32,7,7,0,0,0,.88-.67V49.86h-.49c-.57,0-.72,0-.77,0s-.13,0-.13-.13V49c0-.1,0-.11.13-.11s.2,0,.77,0h.64c.55,0,.72,0,.78,0s.12,0,.12.11,0,.36,0,1Zm-1.52-6.91c.1-.08.13-.09.22,0a9.14,9.14,0,0,1,1.31,1.54c.05.09.05.13-.06.21l-.59.47-.13.07-.09-.08a9.09,9.09,0,0,0-1.29-1.62c-.08-.09-.07-.12,0-.19Zm3.65,4.51c-1,0-1.36,0-1.42,0s-.11,0-.11-.11v-.75c0-.1,0-.11.11-.11s.4,0,1.42,0h.91a11.49,11.49,0,0,0,0-1.2H578c-1,0-1.32,0-1.39,0s-.1,0-.1-.11v-.74c0-.11,0-.12.1-.12s.38,0,1.27,0a5.2,5.2,0,0,0-.7-1.23c-.07-.1,0-.13.07-.17L578,45c.13-.06.14-.06.22,0a6.68,6.68,0,0,1,.69,1.13c0,.11,0,.15-.11.2l-.79.31h1.55a12.15,12.15,0,0,0,.64-1.2,2.78,2.78,0,0,0,.18-.59,8.74,8.74,0,0,1,1.08.31l.14.14-.13.19a.76.76,0,0,0-.2.24c-.19.34-.35.62-.54.91h.08c1,0,1.32,0,1.39,0s.11,0,.11.12v.74c0,.1,0,.11-.11.11s-.4,0-1.39,0h-1c0,.44,0,.84-.06,1.2H581c1,0,1.37,0,1.43,0s.11,0,.11.11v.75c0,.1,0,.11-.11.11s-.41,0-1.43,0H579.9a4.3,4.3,0,0,0,2.81,2,3.35,3.35,0,0,0-.41.72c-.07.21-.11.3-.21.3a.89.89,0,0,1-.23-.07,4.7,4.7,0,0,1-2.53-2.15,4.25,4.25,0,0,1-2.25,2.11.66.66,0,0,1-.26.09c-.08,0-.11-.08-.22-.26a2.21,2.21,0,0,0-.5-.61c1.39-.52,2.12-1.06,2.43-2.12Z"/>
      <polygon class="cls-5" points="542.21 12.8 464.66 12.8 464.66 7.37 503.44 0 542.21 7.37 542.21 12.8"/>
      <rect class="cls-5" x="464.66" y="53.77" width="77.55" height="3.4"/>
      <rect class="cls-5" x="468.33" y="11.24" width="70.22" height="44.24"/>
      <path class="cls-2" d="M488.28,22.23c-1.62,0-2.18,0-2.29,0s-.2,0-.2-.18V20.34c0-.17,0-.18.2-.18s.67,0,2.29,0h10.85c1.62,0,2.18,0,2.29,0s.2,0,.2.18v1.74c0,.17,0,.18-.2.18s-.67,0-2.29,0Z"/>
      <path class="cls-2" d="M509.21,22.12c0,4.48,0,5.29,0,5.4s0,.2-.2.2h-1.3c-.16,0-.18,0-.18-.2v-.79h-1.65v1.42c0,.18,0,.2-.18.2H504.4c-.18,0-.19,0-.19-.2s0-1,0-5.54V18.68c0-3.26,0-4.21,0-4.32s0-.2.19-.2.47,0,1.55,0h1.55c1.08,0,1.42,0,1.55,0s.2,0,.2.2,0,1,0,3.64Zm-3.29-6.28v3.72h1.65V15.84Zm1.65,9.25V21.2h-1.65v3.89Zm4.79-4.79c-1.71,0-2.3,0-2.41,0s-.22,0-.22-.22V18.88c0-.18,0-.2.22-.2s.7,0,2.41,0h1.3V16.86h-.85c-1.6,0-2.16,0-2.27,0s-.21,0-.21-.2V15.44c0-.2,0-.22.21-.22s.67,0,2.27,0h.85a15.37,15.37,0,0,0-.13-2c.7,0,1.19.06,1.86.13.18,0,.28.09.28.18a1.07,1.07,0,0,1-.1.38,4.19,4.19,0,0,0-.09,1.35h1.2c1.64,0,2.18,0,2.29,0s.2,0,.2.22V16.7c0,.18,0,.2-.2.2s-.65,0-2.29,0h-1.2v1.86h1.91c1.71,0,2.3,0,2.41,0s.21,0,.21.2v1.24c0,.2,0,.22-.21.22s-.7,0-2.41,0Zm.07,3.39c-1.71,0-2.28,0-2.39,0s-.22,0-.22-.2V22.26c0-.18,0-.19.22-.19s.68,0,2.39,0H516a12.23,12.23,0,0,0-.13-1.58c.69,0,1.34.09,1.82.16.2,0,.31.11.31.2a.62.62,0,0,1-.09.3,2.35,2.35,0,0,0-.09.92c1.22,0,1.71,0,1.8,0s.22,0,.22.19v1.26c0,.18,0,.2-.22.2s-.58,0-1.8,0v1.78c0,.83,0,1.6,0,2.21a1.68,1.68,0,0,1-.63,1.53,4.15,4.15,0,0,1-2.34.4c-.54,0-.56,0-.69-.54a3.75,3.75,0,0,0-.54-1.31c.63,0,1.17.07,1.77.07.43,0,.59-.15.59-.56V23.69Zm-.3.5c.18-.11.23-.11.38,0a14,14,0,0,1,1.65,2.07c.11.16.09.21-.09.34l-1.1.76a.42.42,0,0,1-.21.1c-.06,0-.09,0-.15-.12A15.65,15.65,0,0,0,511,25.14c-.13-.14-.13-.19.09-.32Z"/>
      <path class="cls-2" d="M489.77,46.08a10.13,10.13,0,0,1-2.36,3.6c-.16.18-.25.27-.34.27s-.18-.11-.34-.34a4.28,4.28,0,0,0-1.1-1.07,7.8,7.8,0,0,0,2.45-3.25,10.33,10.33,0,0,0,.57-3.95c0-.93,0-1.47,0-1.64-.63.35-1.3.69-2,1a1,1,0,0,1-.4.13c-.16,0-.21-.14-.36-.49a2.88,2.88,0,0,0-.72-1.06,19.6,19.6,0,0,0,7-4.34,4.81,4.81,0,0,0,.74-1c.68.09,1.37.2,1.89.32.21,0,.32.09.32.2s-.09.17-.29.25a20.66,20.66,0,0,0,7.57,4.34,3.28,3.28,0,0,0-.67,1.14c-.13.36-.18.5-.34.5a1.37,1.37,0,0,1-.4-.12A25.36,25.36,0,0,1,496.22,38v.66c0,.18,0,.2-.2.2s-.43,0-1.51,0H493c-1.08,0-1.4,0-1.51,0s-.2,0-.2-.2V38a25.6,25.6,0,0,1-2.41,1.55c.2,0,.81,0,2.34,0h5c1.7,0,2.29,0,2.4,0s.19,0,.19.18,0,.5,0,1.53v2.18c0,1,0,1.4,0,1.51s0,.18-.19.18-.7,0-2.4,0h-6.17c-.08.3-.17.61-.27.88.05,0,.07,0,.18,0s.72,0,2.41,0h4.84c1.7,0,2.31,0,2.42,0s.21,0,.21.2,0,.49,0,1.06v1c0,1.77,0,2.09,0,2.18s0,.2-.21.2h-1.53c-.18,0-.2,0-.2-.2V50h-6.27v.47c0,.18,0,.2-.2.2H490c-.2,0-.22,0-.22-.2s0-.43,0-2.21v-.85c0-.77,0-1.13,0-1.26ZM497,42.91h-6.55c0,.32-.06.61-.09.9H497Zm-6.5-2v.83H497v-.83Zm1.17,7.72h6.27V47.39h-6.27Zm2.85-11h1.11a14.5,14.5,0,0,1-1.91-1.68,18.41,18.41,0,0,1-1.81,1.69Z"/>
      <path class="cls-2" d="M509.16,48.74c-1.75,0-2.34,0-2.45,0s-.22,0-.22-.18V47.52c0-.2,0-.22.22-.22s.7,0,2.45,0h2.9v-1h-1.52c-1.73,0-2.3,0-2.43,0s-.2,0-.2-.21,0-.54,0-1.57V42.31c0-1,0-1.44,0-1.54s0-.22.2-.22.7,0,2.43,0h1.52v-1H510c-1.76,0-2.37,0-2.48,0s-.2,0-.2-.2V38.41c0-.2,0-.22.2-.22s.72,0,2.48,0h2.06V37.15h-5.48v3.22a32.19,32.19,0,0,1-.36,5.51,13.28,13.28,0,0,1-1.35,4.27c-.12.23-.2.34-.27.34s-.14-.09-.3-.29a5.18,5.18,0,0,0-1.12-1,9.58,9.58,0,0,0,1.28-3.48,32.75,32.75,0,0,0,.34-5.83c0-2.76,0-4,0-4.09s0-.2.2-.2.7,0,2.41,0h3.71v-.27a4.92,4.92,0,0,0-.1-1.25c.66,0,1.24,0,1.87.08.2,0,.29.1.29.21a2.53,2.53,0,0,1-.11.33,1.65,1.65,0,0,0-.09.64v.26h4c1.69,0,2.28,0,2.39,0s.18,0,.18.2V37c0,.18,0,.19-.18.19s-.7,0-2.39,0h-3.15v1.08h2.72c1.76,0,2.37,0,2.48,0s.2,0,.2.22v1.06c0,.18,0,.2-.2.2s-.72,0-2.48,0h-2.72v1h1.65c1.7,0,2.29,0,2.4,0s.21,0,.21.22,0,.54,0,1.54v2.31c0,1,0,1.46,0,1.57s0,.21-.21.21-.7,0-2.4,0h-1.65v1h3.29c1.77,0,2.38,0,2.47,0s.2,0,.2.22V48.6c0,.16,0,.18-.2.18s-.7,0-2.47,0h-3.29c0,1.14,0,1.73,0,1.8s0,.2-.2.2h-1.36c-.2,0-.22,0-.22-.2s0-.66,0-1.8Zm2.9-5.87v-1h-2.49v1Zm0,2.22V44h-2.49v1.05Zm1.71-3.24v1h2.55v-1ZM516.32,44h-2.55v1.05h2.55Z"/>
      <path class="cls-4" d="M388.07,14.27c-1.76-1-5.74-.09-7.84.41L367,17.83s-4.89-2.19-5.34-2.08l-1.74.41,3,2.57-12.85,3.06s-10.72-7.32-11.8-7.06l-2,.48,6.11,9.18s-4.36,1.36-4.14,2.25,1.79.65,1.79.65l-3.43,2.34,1.92-.46,3.8-1.85s9.41,1,12.46.26l8.63-2.06a5.49,5.49,0,0,0,2.53.09l-5.53,8.6,2.82-.67c.83-.2,12.6-10.85,12.6-10.85L386,20.27c2-.49,7.14-2,6.84-3.28C392.46,15.43,389.83,15.27,388.07,14.27ZM357.22,23.6a.6.6,0,0,1-.45.73l-.33.08a.61.61,0,0,1-.73-.45l-.09-.37a.6.6,0,0,1,.45-.72l.34-.08a.6.6,0,0,1,.72.44Zm2.18-.52a.6.6,0,0,1-.44.73l-.34.08a.61.61,0,0,1-.72-.45l-.09-.37a.59.59,0,0,1,.44-.72l.34-.09a.61.61,0,0,1,.72.45Zm2.19-.52a.61.61,0,0,1-.45.73l-.34.08a.61.61,0,0,1-.72-.45l-.09-.37a.59.59,0,0,1,.45-.72l.33-.08a.6.6,0,0,1,.73.44Zm2.18-.52a.6.6,0,0,1-.44.73l-.34.08a.61.61,0,0,1-.72-.45l-.09-.37a.59.59,0,0,1,.44-.72l.34-.09a.61.61,0,0,1,.72.45Zm2.19-.52a.62.62,0,0,1-.45.73l-.34.08a.61.61,0,0,1-.72-.45l-.09-.37a.59.59,0,0,1,.44-.72l.34-.08a.6.6,0,0,1,.73.44Zm2.18-.52a.61.61,0,0,1-.44.73l-.35.08a.61.61,0,0,1-.72-.45l-.09-.37a.61.61,0,0,1,.45-.72l.34-.08a.6.6,0,0,1,.72.44Zm2.18-.52a.6.6,0,0,1-.44.73l-.34.08a.61.61,0,0,1-.72-.45l-.09-.37a.59.59,0,0,1,.44-.72l.34-.09a.6.6,0,0,1,.72.45Zm2.19-.52a.61.61,0,0,1-.45.73l-.34.08a.61.61,0,0,1-.72-.45l-.09-.37a.61.61,0,0,1,.45-.72l.34-.08a.6.6,0,0,1,.72.44Zm2.18-.52a.6.6,0,0,1-.44.73l-.34.08a.61.61,0,0,1-.72-.45l-.09-.37a.59.59,0,0,1,.44-.72l.34-.08a.59.59,0,0,1,.72.44Zm2.19-.52a.62.62,0,0,1-.45.73l-.34.08a.61.61,0,0,1-.72-.45l-.09-.37a.6.6,0,0,1,.45-.72l.34-.09a.61.61,0,0,1,.72.45Zm2.18-.52a.61.61,0,0,1-.44.73l-.34.08a.6.6,0,0,1-.72-.45l-.09-.37a.59.59,0,0,1,.44-.72l.34-.09A.61.61,0,0,1,379,18Zm2.19-.52a.62.62,0,0,1-.45.73l-.34.08a.61.61,0,0,1-.72-.45l-.09-.37a.61.61,0,0,1,.44-.73l.34-.08a.62.62,0,0,1,.73.45Zm5.92-3.51a3.25,3.25,0,0,1,1,.35,16.27,16.27,0,0,0,2.48,1C388.4,16.25,387.51,15.82,387.17,14.37Z"/>
      <path class="cls-6" d="M351.85,34.44a2.76,2.76,0,0,0-.57.06,4.56,4.56,0,0,0-9,.15,3.31,3.31,0,0,0-.55,0,3,3,0,0,0-1.72.56,3.05,3.05,0,0,0-5.94.44,2.31,2.31,0,0,0-.37,0,2,2,0,0,0-2,2h23.51A3.4,3.4,0,0,0,351.85,34.44Z"/>
      <path class="cls-6" d="M390.86,33.54a4.52,4.52,0,0,0-.74.06,5.89,5.89,0,0,0-11.62.21,4.17,4.17,0,0,0-.71-.07,3.8,3.8,0,0,0-2.22.72,3.95,3.95,0,0,0-7.68.58,2.44,2.44,0,0,0-.48,0,2.56,2.56,0,0,0-2.55,2.56h30.36A4.38,4.38,0,0,0,390.86,33.54Z"/>
      <polygon class="cls-2" points="474.82 49.95 475.68 48.96 461.8 36.93 461.8 41.41 397.92 41.41 397.92 58.48 461.8 58.48 461.8 62.97 476.83 49.95 475.68 48.96 474.82 49.95 473.96 48.96 464.42 57.22 464.42 57.17 464.42 55.86 400.54 55.86 400.54 44.04 464.42 44.04 464.42 42.68 473.96 50.94 474.82 49.95 473.96 48.96 474.82 49.95"/>
      <polygon class="cls-4" points="474.82 49.95 463.11 39.8 463.11 42.73 399.23 42.73 399.23 57.17 463.11 57.17 463.11 60.09 474.82 49.95"/>
      <path class="cls-2" d="M433.53,48.72a4.27,4.27,0,0,0-.08.55c0,.31,0,.34-.26.39V51.8c0,.49,0,1.06,0,1.51v.27a4.63,4.63,0,0,0,1.5-1.17,6.62,6.62,0,0,1-.89-2.35h-.15c-.12,0-.13,0-.13-.11v-.76c0-.11,0-.12.13-.12s.3,0,1,0H436a.56.56,0,0,0,.21,0l.14,0c.1,0,.17,0,.42.3s.25.28.25.38l-.1.2a1.68,1.68,0,0,0-.2.5,8.91,8.91,0,0,1-.84,2,5,5,0,0,0,1.54,1.09,2.29,2.29,0,0,0-.4.71c-.07.17-.11.25-.19.25a.52.52,0,0,1-.25-.11,6.22,6.22,0,0,1-1.29-1.12A6.66,6.66,0,0,1,434,54.4a.63.63,0,0,1-.25.12c-.07,0-.12-.06-.2-.24a4.78,4.78,0,0,0-.33-.47.82.82,0,0,1-.23.42,1.54,1.54,0,0,1-.92.22c-.33,0-.33,0-.39-.33a2.38,2.38,0,0,0-.26-.71,4.33,4.33,0,0,0,.74.05c.13,0,.21-.09.21-.31V49.86l-.34.07v1.56c0,.59,0,.84,0,.91s0,.12-.13.12h-.41c-.11,0-.12,0-.12-.12s0-.32,0-.91V50.05l-.35.06a8.89,8.89,0,0,1-.73,4.14c-.06.13-.13.21-.19.21l-.12-.11a2.56,2.56,0,0,0-.57-.65,6.15,6.15,0,0,0,.73-3.46l-.2.07-.14.07c-.08,0-.12-.06-.15-.19l-.06-.29-.38.18V51c0,1,0,1.64,0,2.19s0,.9-.31,1.1-.41.23-1.08.23c-.35,0-.35,0-.4-.33a2.93,2.93,0,0,0-.24-.77,4,4,0,0,0,.6,0c.27,0,.35-.1.35-.41V50.49l-.09,0a1.15,1.15,0,0,0-.38.2l-.19.06c-.05,0-.11,0-.13-.14-.07-.29-.12-.63-.18-1a7.13,7.13,0,0,0,1-.21V47.64l-.74,0c-.11,0-.12,0-.12-.12v-.78c0-.11,0-.12.12-.12s.22,0,.74,0v-.59a8.73,8.73,0,0,0-.09-1.55c.42,0,.72,0,1.09.08.11,0,.18.06.18.11l-.07.23a3.67,3.67,0,0,0-.06,1.11v.61c.3,0,.43,0,.47,0s.13,0,.13.12v.78c0,.11,0,.12-.13.12l-.47,0v1.41l.61-.27,0,.51.36,0v-2c0-1,0-1.45,0-1.53s0-.11.13-.11.25,0,.83,0a5.58,5.58,0,0,0,.18-.58,2.94,2.94,0,0,0,.12-.63c.36,0,.68.07,1,.14l.13.12-.09.15a.47.47,0,0,0-.15.24l-.22.56h.07c.69,0,.88,0,.95,0s.13,0,.13.11,0,.57,0,1.53V48a2.56,2.56,0,0,0,.73-2.22c0-.46,0-.7,0-.77s0-.12.11-.12.21,0,.75,0h.68c.55,0,.7,0,.76,0s.12,0,.12.12,0,.35,0,.91v1.25c0,.21,0,.29,0,.34l.17.07.18-.08a3.66,3.66,0,0,0,.08-1,1.63,1.63,0,0,0,.56.28c.15,0,.18.09.17.3a2,2,0,0,1-.27,1.2,1,1,0,0,1-.76.23c-.48,0-.65,0-.81-.16a.92.92,0,0,1-.23-.74V45.85h-.58a3.67,3.67,0,0,1-.78,2.63c-.1.13-.17.19-.22.19s-.11-.05-.2-.16a2.21,2.21,0,0,0-.44-.43v.71ZM431,46.53v2.64c.4-.06.84-.12,1.3-.21V46.53Zm.56.45c.11-.06.13,0,.18,0a6.12,6.12,0,0,1,.46,1c0,.11,0,.15-.06.21l-.4.24c-.12.07-.18.08-.21,0a5.91,5.91,0,0,0-.44-1c-.06-.08,0-.13.08-.18Zm3.14,3.07a5.74,5.74,0,0,0,.55,1.54,5.62,5.62,0,0,0,.53-1.54Z"/>
      <path class="cls-2" d="M446.07,47.1a13.74,13.74,0,0,0-.05-1.4,10.73,10.73,0,0,1,1.14.08c.11,0,.18,0,.18.12l-.06.22a3.52,3.52,0,0,0-.08,1.08v1.55c0,.66,0,1,0,1s0,.14-.11.14h-.92c-.12,0-.13,0-.13-.14v-.4h-2.25v3.38h2.6v-.83a11,11,0,0,0-.06-1.4,10.38,10.38,0,0,1,1.15.08c.1,0,.17.06.17.12l-.06.22a3.52,3.52,0,0,0-.08,1.08v1.33c0,.61,0,.9,0,1s0,.11-.12.11h-.91c-.11,0-.12,0-.12-.11v-.51h-6.26v.56c0,.1,0,.11-.12.11h-.9c-.12,0-.13,0-.13-.11s0-.35,0-1V52a8.92,8.92,0,0,0-.07-1.38c.42,0,.78,0,1.16.07.11,0,.19.06.19.12l-.07.22a2.79,2.79,0,0,0-.08,1v.81h2.48V49.39h-2.13v.45c0,.11,0,.12-.12.12h-.91c-.11,0-.12,0-.12-.12s0-.39,0-1.05V47.14a11.24,11.24,0,0,0-.06-1.41c.41,0,.78,0,1.15.08.11,0,.17.07.17.13l-.06.22a3.25,3.25,0,0,0-.07,1v1.2h2.13V45.92a9.22,9.22,0,0,0-.08-1.42c.42,0,.83,0,1.21.09.1,0,.17,0,.17.11l-.07.22a4.14,4.14,0,0,0-.05,1v2.4h2.25Z"/>
      <polygon class="cls-2" points="410.94 49.95 411.8 48.96 397.92 36.93 397.92 41.41 320.09 41.41 320.09 58.48 397.92 58.48 397.92 62.97 412.95 49.95 411.8 48.96 410.94 49.95 410.08 48.96 400.54 57.22 400.54 57.17 400.54 55.86 322.71 55.86 322.71 44.04 400.54 44.04 400.54 42.68 410.08 50.94 410.94 49.95 410.08 48.96 410.94 49.95"/>
      <polygon class="cls-4" points="410.94 49.95 399.23 39.8 399.23 42.73 321.4 42.73 321.4 57.17 399.23 57.17 399.23 60.09 410.94 49.95"/>
      <path class="cls-2" d="M344.5,54.58c-.11,0-.12,0-.12-.12s0-.82,0-4.23V48c0-2.17,0-2.94,0-3s0-.12.12-.12.44,0,1.47,0h6c1,0,1.39,0,1.46,0s.13,0,.13.12,0,.84,0,2.64v2.55c0,3.41,0,4.16,0,4.23s0,.12-.13.12h-.94c-.11,0-.12,0-.12-.12v-.52h-6.78v.53c0,.11,0,.12-.12.12Zm1.06-1.67h6.78V46h-6.78ZM350,48.8c.88,0,1.19,0,1.26,0s.12,0,.12.12v.73c0,.11,0,.12-.12.12s-.38,0-1.26,0h-.57v1.46h.9c1,0,1.36,0,1.42,0s.14,0,.14.12v.76c0,.11,0,.12-.14.12s-.39,0-1.42,0h-2.77c-1,0-1.35,0-1.42,0s-.13,0-.13-.12v-.76c0-.11,0-.12.13-.12s.4,0,1.42,0h.76V49.73h-.43c-.9,0-1.21,0-1.27,0s-.12,0-.12-.12V48.9c0-.11,0-.12.12-.12s.37,0,1.27,0h.43V47.65h-.64c-1,0-1.33,0-1.39,0s-.11,0-.11-.12v-.74c0-.11,0-.12.11-.12s.4,0,1.39,0h2.56c1,0,1.34,0,1.4,0s.11,0,.11.12v.74c0,.11,0,.12-.11.12s-.4,0-1.4,0h-.81V48.8Zm.67,1c.11-.06.13,0,.21.06a3.88,3.88,0,0,1,.54.79c.05.09.05.11-.08.18l-.48.25c-.14.08-.16,0-.22-.07a3.6,3.6,0,0,0-.5-.82c-.08-.09,0-.1.08-.16Z"/>
      <path class="cls-2" d="M363.91,45.29a.63.63,0,0,0,.2,0l.14,0c.09,0,.18.05.37.27s.28.34.28.41l-.1.19a1.4,1.4,0,0,0-.23.38,8.66,8.66,0,0,1-.95,1.43,4.78,4.78,0,0,0,1.61,1.21,2.91,2.91,0,0,0-.42.67c-.09.18-.12.26-.19.26a.74.74,0,0,1-.25-.12,6.24,6.24,0,0,1-1.11-.92v.72c0,.11,0,.12-.12.12s-.25,0-.95,0h-.94c-.69,0-.88,0-.95,0s-.12,0-.12-.12v-.57a8.43,8.43,0,0,1-1,.81.58.58,0,0,1-.25.12c-.07,0-.11-.07-.18-.19a1.5,1.5,0,0,0-.39-.52,10.45,10.45,0,0,0,1-.76,4.81,4.81,0,0,0-.53-.45c-.1-.07-.09-.09,0-.2l.29-.29c.1-.11.12-.11.22,0a4.75,4.75,0,0,1,.55.43c.12-.13.22-.29.33-.43-.18-.16-.33-.29-.52-.43l-.08-.09.09-.12.25-.3.11-.07.11,0a3.51,3.51,0,0,1,.42.31,6.17,6.17,0,0,0,.33-.73h-.91a6.42,6.42,0,0,1-1.25,1.44c-.12.1-.18.16-.24.16s-.12-.07-.24-.21a2.83,2.83,0,0,0-.37-.32l-.38.9a3.13,3.13,0,0,1,.84,2.08c0,1.06-.36,1.56-1.28,1.63-.34,0-.34,0-.38-.34a1.74,1.74,0,0,0-.22-.67c.66,0,.89-.1.89-.68a3.24,3.24,0,0,0-.86-2,10.89,10.89,0,0,0,.86-2.42h-1v6.22c0,1.51,0,2.3,0,2.35s0,.13-.12.13h-.86c-.1,0-.11,0-.11-.13s0-.81,0-2.34V47.31c0-1.54,0-2.3,0-2.38s0-.12.11-.12.32,0,.83,0h1.35a.57.57,0,0,0,.22,0l.15,0c.08,0,.16,0,.43.35s.23.33.23.42l-.1.18a1,1,0,0,0-.17.37c-.12.35-.24.69-.39,1A5.71,5.71,0,0,0,359.68,45a3.08,3.08,0,0,0,.14-.54c.34,0,.67.11.9.15s.16.08.16.13l-.06.16a.64.64,0,0,0-.19.28l-.1.22h.9l0-.09c0-.11,0-.17.11-.2l.56-.17c.13,0,.15-.07.18,0a9.2,9.2,0,0,0,.84,2.18,6.34,6.34,0,0,0,.57-1h-.27c-.29,0-.47,0-.54,0s-.12,0-.12-.12v-.64c0-.11,0-.12.12-.12s.24,0,.68,0Zm-4.9,7a1.81,1.81,0,0,0,.29-.49,6.2,6.2,0,0,1,.88.35l.12.15-.1.14c-.11,0-.17.14-.27.29A6.08,6.08,0,0,1,358.66,54c-.12.1-.17.14-.23.14s-.13-.07-.26-.21a3.41,3.41,0,0,0-.55-.44A5.71,5.71,0,0,0,359,52.24Zm1.24-.81c-1,0-1.4,0-1.47,0s-.12,0-.12-.12v-.71c0-.12,0-.13.12-.13s.43,0,1.47,0h2.92c1,0,1.39,0,1.45,0s.14,0,.14.13v.71c0,.11,0,.12-.14.12s-.41,0-1.45,0h-1v.77c0,.33,0,.86,0,1.27a.89.89,0,0,1-.34.79,2.39,2.39,0,0,1-1.28.21c-.35,0-.35,0-.44-.34a2,2,0,0,0-.3-.72c.4,0,.76.05,1,.05a.27.27,0,0,0,.29-.31V51.43Zm1.94-2.54c.66,0,.86,0,.94,0a6.76,6.76,0,0,1-1.32-2.27,7,7,0,0,1-1.37,2.28h1.75Zm1.13,2.93.12-.06.1.08a6.27,6.27,0,0,0,1.54,1.36,2.25,2.25,0,0,0-.46.54c-.09.17-.15.23-.22.23s-.13,0-.26-.16a6.58,6.58,0,0,1-1.4-1.49c-.06-.1,0-.1.09-.17Z"/>
      <path class="cls-2" d="M368.64,51.87c.85,0,1.13,0,1.2,0s.12,0,.12.13v.67c0,.12,0,.14-.12.14s-.35,0-1.2,0h-.11c0,1,0,1.62,0,1.67s0,.12-.12.12h-.77c-.11,0-.12,0-.12-.12s0-.65,0-1.67h-.34c-.86,0-1.13,0-1.2,0s-.12,0-.12-.14V52c0-.12,0-.13.12-.13s.34,0,1.2,0h.34v-.76h-.1c-.75,0-1,0-1.07,0s-.12,0-.12-.11,0-.37,0-1V48.36c0-.67,0-1,0-1s0-.12.12-.12.32,0,1.07,0h.1v-.71h-.27c-.86,0-1.13,0-1.19,0s-.14,0-.14-.14v-.69c0-.1,0-.11.14-.11s.33,0,1.19,0h.27a7.88,7.88,0,0,0-.08-1.15,6.74,6.74,0,0,1,1,.08c.11,0,.18,0,.18.11l-.07.2a2.16,2.16,0,0,0-.06.73v0h.17c.85,0,1.14,0,1.2,0s.14,0,.14.11v.69c0,.13,0,.14-.14.14s-.34,0-1.18,0h-.19v.71h.08c.75,0,1,0,1.06,0s.12,0,.12.12v0A6.54,6.54,0,0,0,372.17,45a2,2,0,0,0,.25-.62c.4.06.72.11,1.07.19.1,0,.17.08.17.14a.27.27,0,0,1-.17.21,6.74,6.74,0,0,0,2.81,2.25,2.55,2.55,0,0,0-.43.72c-.08.19-.12.27-.19.27s-.12,0-.25-.12a8.61,8.61,0,0,1-.94-.65v.68c0,.11,0,.12-.12.12s-.26,0-.93,0h-.94c-.68,0-.87,0-.94,0s-.12,0-.12-.12v-.6a6.43,6.43,0,0,1-.82.63c-.12.09-.19.13-.24.13s-.12-.07-.22-.24a2.6,2.6,0,0,0-.38-.47c0,.16,0,.43,0,.82V50c0,.67,0,1,0,1s0,.11-.12.11-.31,0-1.06,0h-.08v.76Zm-1-3.06V48h-.49v.85Zm0,1.58v-.87h-.49v.87Zm.83-2.43v.85h.5V48Zm.5,1.56h-.5v.87h.5ZM372.84,52c0,.5,0,1.09,0,1.43s0,.65-.19.85a1,1,0,0,1-.65.2c-.35,0-.35,0-.4-.32a2.31,2.31,0,0,0-.21-.61l.35,0c.15,0,.2,0,.2-.25v-.87h-.77v.73c0,.81,0,1.21,0,1.26s0,.13-.13.13h-.68c-.11,0-.12,0-.12-.13s0-.41,0-1.25V50.23c0-.84,0-1.22,0-1.29s0-.11.12-.11.23,0,.8,0h.74c.58,0,.75,0,.8,0s.12,0,.12.11,0,.51,0,1.38Zm-1.65-2.33v.64H372v-.64Zm.77,2.06V51h-.77v.68Zm1.48-4.42h.86a7.41,7.41,0,0,1-1.36-1.53,7.67,7.67,0,0,1-1.25,1.53h1.75Zm-.15,3.07a9.38,9.38,0,0,0-.06-1.45c.34,0,.67,0,.92.06s.14,0,.14.12l-.06.23a4.87,4.87,0,0,0,0,1v1.08c0,.7,0,1,0,1.09s0,.12-.14.12h-.69c-.11,0-.12,0-.12-.12s0-.39,0-1.09Zm2.37,1.6c0,.6,0,1.12,0,1.58s-.09.62-.33.78a1.59,1.59,0,0,1-.93.18c-.34,0-.34,0-.4-.33a2.69,2.69,0,0,0-.22-.66,4.54,4.54,0,0,0,.57,0c.23,0,.31-.06.31-.33V50.08a8.3,8.3,0,0,0-.08-1.41,8,8,0,0,1,1,.08c.11,0,.18,0,.18.11l-.08.21a3.76,3.76,0,0,0,0,1Z"/>
      <path class="cls-2" d="M379.54,52.1a1.71,1.71,0,0,0,.91.92,6.45,6.45,0,0,0,2,.22c1.42,0,3.09-.07,4.73-.23a2,2,0,0,0-.3.84c-.05.36-.05.36-.41.38-1.39.07-2.7.1-3.85.1a7.54,7.54,0,0,1-2.57-.31A2.15,2.15,0,0,1,379,53a12.17,12.17,0,0,1-1.13,1,.9.9,0,0,0-.22.22l-.17.1-.15-.14a8.73,8.73,0,0,1-.45-1,6.44,6.44,0,0,0,.65-.34,6.85,6.85,0,0,0,.92-.71V49.67h-.52c-.59,0-.74,0-.8,0s-.13,0-.13-.13v-.83c0-.11,0-.12.13-.12s.21,0,.8,0h.68c.58,0,.75,0,.82,0s.12,0,.12.12,0,.37,0,1Zm-1.6-7.24c.11-.07.15-.08.23,0a9.25,9.25,0,0,1,1.38,1.62c.06.09.06.13-.07.22l-.61.5-.13.06-.1-.07a9.3,9.3,0,0,0-1.36-1.71c-.07-.09-.06-.12.06-.2Zm3.83,4.74c-1.06,0-1.42,0-1.48,0s-.12,0-.12-.12v-.78c0-.11,0-.13.12-.13s.42,0,1.48,0h1c0-.37,0-.79,0-1.26H382c-1,0-1.38,0-1.45,0s-.11,0-.11-.12v-.77c0-.12,0-.13.11-.13s.4,0,1.33,0a5.12,5.12,0,0,0-.74-1.28c-.07-.1,0-.14.08-.18l.74-.3c.14,0,.15,0,.23.05a6.3,6.3,0,0,1,.72,1.18c.05.11,0,.16-.12.21l-.82.32h1.63c.27-.46.5-.88.67-1.25a2.87,2.87,0,0,0,.19-.62,10.17,10.17,0,0,1,1.13.32l.14.16-.13.19a.66.66,0,0,0-.21.26c-.2.35-.37.65-.57.94h.09c1,0,1.38,0,1.45,0s.12,0,.12.13v.77c0,.11,0,.12-.12.12s-.42,0-1.45,0h-1c0,.46,0,.88-.06,1.26h1.33c1.07,0,1.43,0,1.49,0s.13,0,.13.13v.78c0,.11,0,.12-.13.12s-.42,0-1.49,0H384a4.5,4.5,0,0,0,2.95,2.07,3.11,3.11,0,0,0-.43.76c-.07.22-.12.31-.22.31a.81.81,0,0,1-.24-.06,4.91,4.91,0,0,1-2.65-2.26A4.38,4.38,0,0,1,381,52.63a.57.57,0,0,1-.26.1c-.09,0-.12-.09-.23-.27a2.16,2.16,0,0,0-.53-.64c1.45-.55,2.22-1.11,2.55-2.22Z"/>
      <polygon class="cls-2" points="333.12 49.95 333.97 48.96 320.09 36.93 320.09 41.41 268.02 41.41 268.02 58.48 320.09 58.48 320.09 62.97 335.12 49.95 333.97 48.96 333.12 49.95 332.25 48.96 322.71 57.22 322.71 57.17 322.71 55.86 270.65 55.86 270.65 44.04 322.71 44.04 322.71 42.68 332.25 50.94 333.12 49.95 332.25 48.96 333.12 49.95"/>
      <polygon class="cls-4" points="333.12 49.95 321.4 39.8 321.4 42.73 269.33 42.73 269.33 57.17 321.4 57.17 321.4 60.09 333.12 49.95"/>
      <path class="cls-2" d="M291.26,48.72a3,3,0,0,0-.08.55c0,.31,0,.34-.26.39V51.8c0,.49,0,1.06,0,1.51v.27a4.59,4.59,0,0,0,1.49-1.17,6.82,6.82,0,0,1-.89-2.35h-.14c-.12,0-.13,0-.13-.11v-.76c0-.11,0-.12.13-.12s.3,0,1,0h1.31a.52.52,0,0,0,.21,0l.14,0c.1,0,.18,0,.42.3s.26.28.26.38l-.1.2a1.68,1.68,0,0,0-.2.5,9,9,0,0,1-.85,2,5.25,5.25,0,0,0,1.54,1.09,2.53,2.53,0,0,0-.39.71c-.07.17-.11.25-.19.25a.49.49,0,0,1-.25-.11A5.75,5.75,0,0,1,293,53.24a6.47,6.47,0,0,1-1.37,1.16c-.13.08-.19.12-.25.12s-.11-.06-.2-.24a4.78,4.78,0,0,0-.33-.47.75.75,0,0,1-.23.42,1.51,1.51,0,0,1-.91.22c-.33,0-.33,0-.4-.33a2.38,2.38,0,0,0-.25-.71,4.33,4.33,0,0,0,.74.05c.13,0,.21-.09.21-.31V49.86l-.34.07v1.56c0,.59,0,.84,0,.91s0,.12-.13.12h-.41c-.11,0-.12,0-.12-.12s0-.32,0-.91V50.05l-.35.06a9,9,0,0,1-.73,4.14c-.06.13-.13.21-.2.21l-.12-.11a2.53,2.53,0,0,0-.56-.65,6.23,6.23,0,0,0,.73-3.46l-.2.07-.14.07c-.08,0-.12-.06-.16-.19l-.05-.29-.39.18V51c0,1,0,1.64,0,2.19s0,.9-.31,1.1-.41.23-1.08.23c-.35,0-.35,0-.41-.33a2.62,2.62,0,0,0-.23-.77,3.82,3.82,0,0,0,.59,0c.28,0,.36-.1.36-.41V50.49l-.09,0a1.35,1.35,0,0,0-.39.2l-.18.06c-.06,0-.11,0-.14-.14-.06-.29-.12-.63-.17-1a7.47,7.47,0,0,0,1-.21V47.64l-.74,0c-.11,0-.12,0-.12-.12v-.78c0-.11,0-.12.12-.12s.22,0,.74,0v-.59a8.73,8.73,0,0,0-.09-1.55c.42,0,.71,0,1.09.08.11,0,.17.06.17.11l-.06.23a3.17,3.17,0,0,0-.07,1.11v.61c.31,0,.43,0,.48,0s.13,0,.13.12v.78c0,.11,0,.12-.13.12l-.48,0v1.41l.62-.27,0,.51.37,0v-2c0-1,0-1.45,0-1.53s0-.11.13-.11.25,0,.82,0a3.93,3.93,0,0,0,.19-.58,3.71,3.71,0,0,0,.12-.63c.35,0,.67.07,1,.14l.13.12-.08.15a.56.56,0,0,0-.16.24l-.22.56h.08c.68,0,.88,0,.95,0s.13,0,.13.11,0,.57,0,1.53V48a2.56,2.56,0,0,0,.72-2.22c0-.46,0-.7,0-.77s0-.12.11-.12.21,0,.75,0h.68c.55,0,.69,0,.76,0s.12,0,.12.12,0,.35,0,.91v1.25c0,.21,0,.29,0,.34l.17.07.17-.08a3.11,3.11,0,0,0,.09-1,1.55,1.55,0,0,0,.56.28c.14,0,.18.09.17.3,0,.66-.09,1-.28,1.2a1,1,0,0,1-.76.23c-.47,0-.65,0-.8-.16a.89.89,0,0,1-.23-.74V45.85h-.59a3.62,3.62,0,0,1-.78,2.63c-.1.13-.16.19-.22.19s-.11-.05-.19-.16a2.51,2.51,0,0,0-.44-.43v.71Zm-2.51-2.19v2.64c.39-.06.83-.12,1.3-.21V46.53Zm.56.45c.11-.06.13,0,.18,0a7.12,7.12,0,0,1,.46,1c0,.11,0,.15-.07.21l-.39.24c-.13.07-.18.08-.21,0a5.91,5.91,0,0,0-.44-1c-.06-.08,0-.13.07-.18Zm3.14,3.07a5.42,5.42,0,0,0,.55,1.54,5.6,5.6,0,0,0,.52-1.54Z"/>
      <path class="cls-2" d="M300.49,45.11c.79,0,1,0,1.1,0s.14,0,.14.14a6.77,6.77,0,0,0,.06,1.22,8.67,8.67,0,0,0,4.28,6.8,3.37,3.37,0,0,0-.65.83c-.08.18-.13.26-.19.26s-.14-.06-.26-.15a9.43,9.43,0,0,1-3.77-5.45,9.29,9.29,0,0,1-4.05,5.48c-.13.07-.2.13-.25.13s-.12-.09-.23-.27a2.7,2.7,0,0,0-.65-.72,8,8,0,0,0,4.42-7.12h-1.36c-.79,0-1,0-1.1,0s-.14,0-.14-.12v-.92c0-.11,0-.13.14-.13s.31,0,1.1,0Z"/>
      <path class="cls-4" d="M186,28.48l-5.47-2.89L177.65,19a.87.87,0,0,0-.8-.53h-6.79V35.84h3.51a4.74,4.74,0,0,1,9.47,0h3.39V29.25A.87.87,0,0,0,186,28.48Zm-14.26-2.56v-5.6h4.89l2.09,5.6Z"/>
      <path class="cls-4" d="M143.06,17.11V35.84h3.73a4.74,4.74,0,0,1,9.47,0h12.81V14.49H145.68A2.62,2.62,0,0,0,143.06,17.11Z"/>
      <path class="cls-4" d="M179.57,35.84a1.27,1.27,0,1,1-2.54,0h-2.58a3.85,3.85,0,1,0,7.7,0Z"/>
      <path class="cls-4" d="M178.3,32a3.86,3.86,0,0,0-3.85,3.85H177a1.27,1.27,0,0,1,2.54,0h2.58A3.86,3.86,0,0,0,178.3,32Z"/>
      <path class="cls-4" d="M152.79,35.84a1.27,1.27,0,1,1-2.54,0h-2.57a3.85,3.85,0,1,0,7.69,0Z"/>
      <path class="cls-4" d="M151.52,32a3.85,3.85,0,0,0-3.84,3.85h2.57a1.27,1.27,0,0,1,2.54,0h2.58A3.85,3.85,0,0,0,151.52,32Z"/>
      <polygon class="cls-5" points="273 12.8 195.45 12.8 195.45 7.37 234.22 0 273 7.37 273 12.8"/>
      <rect class="cls-5" x="195.45" y="53.77" width="77.55" height="3.4"/>
      <rect class="cls-5" x="199.12" y="11.24" width="70.22" height="44.24"/>
      <path class="cls-2" d="M223.42,15.48a13.42,13.42,0,0,0-.14-2.31c.66,0,1.39.05,2,.13.16,0,.3.09.3.21a.71.71,0,0,1-.09.36,4.39,4.39,0,0,0-.14,1.46v1.35h3.49c1.73,0,2.33,0,2.45,0s.2,0,.2.19,0,.67,0,2.24v2.09c0,2.88,0,3.4,0,3.51s0,.19-.2.19h-1.53c-.18,0-.2,0-.2-.19v-.76h-4.21v2.21c0,2.15,0,3.25,0,3.34s0,.19-.19.19h-1.61c-.18,0-.19,0-.19-.19s0-1.17,0-3.3V23.92h-4v.83c0,.2,0,.21-.19.21h-1.54c-.18,0-.19,0-.19-.21s0-.65,0-3.53V19.36c0-1.83,0-2.41,0-2.52s0-.19.19-.19.72,0,2.45,0h3.26Zm-4,6.69h4V18.43h-4Zm5.91-3.74v3.74h4.21V18.43Z"/>
      <path class="cls-2" d="M239.78,13.75c1.17,0,1.71,0,1.82,0s.18,0,.18.22,0,.63,0,1.71v2.23c0,1.1,0,1.6,0,1.71s0,.22-.18.22-.65,0-1.82,0h-2.91v5.83c0,2.49,0,3.71,0,3.84s0,.2-.19.2h-1.54c-.18,0-.19,0-.19-.2s0-1.35,0-3.84V17.8c0-2.5,0-3.76,0-3.87s0-.22.19-.22.81,0,2.13,0Zm-2.91,1.35v1.06H240V15.1ZM240,17.38h-3.11v1.08H240Zm-.68,11c-.18,0-.2,0-.2-.22s0-.59,0-3.26V23.33c0-1.59,0-2.13,0-2.25s0-.2.2-.2.56,0,1.92,0h2.44c1.36,0,1.8,0,1.92,0s.2,0,.2.2,0,.64,0,1.94V24.8c0,2.61,0,3.1,0,3.19s0,.2-.2.2h-1.29c-.18,0-.2,0-.2-.2v-.56h-3.3v.74c0,.2,0,.22-.21.22Zm1.49-4.88h3.3V22.3h-3.3Zm3.3,2.55V24.8h-3.3v1.26ZM250,23.7c0,1.26.07,2.7.07,3.59a1.94,1.94,0,0,1-.52,1.65c-.38.35-.88.49-2.57.49-.54,0-.54,0-.65-.56a5.75,5.75,0,0,0-.43-1.31,12.68,12.68,0,0,0,1.51.09c.59,0,.74-.17.74-.71V19.76h-3c-1.4,0-1.87,0-2,0s-.2,0-.2-.22,0-.52,0-1.58V15.51c0-1,0-1.47,0-1.58s0-.22.2-.22.58,0,2,0h2.65c1.4,0,1.89,0,2,0s.2,0,.2.22,0,.84,0,2.37Zm-5.18-8.6v1.06h3.33V15.1Zm3.33,3.36V17.38h-3.33v1.08Z"/>
      <path class="cls-2" d="M220.56,46.08a10.13,10.13,0,0,1-2.36,3.6c-.16.18-.25.27-.34.27s-.18-.11-.34-.34a4.45,4.45,0,0,0-1.1-1.07,7.8,7.8,0,0,0,2.45-3.25,10.33,10.33,0,0,0,.57-3.95c0-.93,0-1.47,0-1.64-.63.35-1.3.69-2,1a1,1,0,0,1-.4.13c-.16,0-.22-.14-.36-.49a2.88,2.88,0,0,0-.72-1.06,19.6,19.6,0,0,0,7-4.34,5.21,5.21,0,0,0,.74-1c.68.09,1.36.2,1.89.32.21,0,.32.09.32.2s-.09.17-.29.25a20.66,20.66,0,0,0,7.57,4.34,3.28,3.28,0,0,0-.67,1.14c-.13.36-.18.5-.34.5a1.37,1.37,0,0,1-.4-.12A25,25,0,0,1,227,38v.66c0,.18,0,.2-.2.2s-.43,0-1.52,0h-1.51c-1.08,0-1.4,0-1.51,0s-.2,0-.2-.2V38a25.6,25.6,0,0,1-2.41,1.55c.2,0,.81,0,2.34,0h5c1.69,0,2.29,0,2.4,0s.19,0,.19.18,0,.5,0,1.53v2.18c0,1,0,1.4,0,1.51s0,.18-.19.18-.71,0-2.4,0h-6.17c-.08.3-.17.61-.27.88.05,0,.07,0,.18,0s.72,0,2.41,0H228c1.69,0,2.31,0,2.41,0s.22,0,.22.2,0,.49,0,1.06v1c0,1.77,0,2.09,0,2.18s0,.2-.22.2h-1.53c-.18,0-.19,0-.19-.2V50h-6.27v.47c0,.18,0,.2-.2.2h-1.47c-.2,0-.22,0-.22-.2s0-.43,0-2.21v-.85c0-.77,0-1.13,0-1.26Zm7.22-3.17h-6.55c0,.32-.06.61-.09.9h6.64Zm-6.5-2v.83h6.5v-.83Zm1.17,7.72h6.27V47.39h-6.27Zm2.84-11h1.12a14.5,14.5,0,0,1-1.91-1.68,17.47,17.47,0,0,1-1.82,1.69Z"/>
      <path class="cls-2" d="M240,48.74c-1.75,0-2.34,0-2.45,0s-.22,0-.22-.18V47.52c0-.2,0-.22.22-.22s.7,0,2.45,0h2.89v-1h-1.51c-1.73,0-2.3,0-2.43,0s-.2,0-.2-.21,0-.54,0-1.57V42.31c0-1,0-1.44,0-1.54s0-.22.2-.22.7,0,2.43,0h1.51v-1h-2.05c-1.76,0-2.37,0-2.48,0s-.2,0-.2-.2V38.41c0-.2,0-.22.2-.22s.72,0,2.48,0h2.05V37.15h-5.47v3.22a32.19,32.19,0,0,1-.36,5.51,13.28,13.28,0,0,1-1.35,4.27c-.13.23-.2.34-.27.34s-.14-.09-.31-.29a5.15,5.15,0,0,0-1.11-1,9.58,9.58,0,0,0,1.28-3.48,32.75,32.75,0,0,0,.34-5.83c0-2.76,0-4,0-4.09s0-.2.2-.2.7,0,2.41,0h3.71v-.27a4.85,4.85,0,0,0-.11-1.25c.67,0,1.25,0,1.88.08.19,0,.28.1.28.21a2.3,2.3,0,0,1-.1.33,1.65,1.65,0,0,0-.09.64v.26h4c1.69,0,2.28,0,2.39,0s.18,0,.18.2V37c0,.18,0,.19-.18.19s-.7,0-2.39,0h-3.15v1.08h2.71c1.77,0,2.38,0,2.49,0s.2,0,.2.22v1.06c0,.18,0,.2-.2.2s-.72,0-2.49,0h-2.71v1h1.65c1.69,0,2.29,0,2.4,0s.21,0,.21.22,0,.54,0,1.54v2.31c0,1,0,1.46,0,1.57s0,.21-.21.21-.71,0-2.4,0h-1.65v1h3.29c1.77,0,2.38,0,2.47,0s.19,0,.19.22V48.6c0,.16,0,.18-.19.18s-.7,0-2.47,0h-3.29c0,1.14,0,1.73,0,1.8s0,.2-.2.2H243c-.19,0-.21,0-.21-.2s0-.66,0-1.8Zm2.89-5.87v-1h-2.48v1Zm0,2.22V44h-2.48v1.05Zm1.72-3.24v1h2.55v-1ZM247.11,44h-2.55v1.05h2.55Z"/>
      <polygon class="cls-2" points="205.85 49.95 206.71 48.96 192.83 36.93 192.83 41.41 128.94 41.41 128.94 58.48 192.82 58.48 192.83 62.97 207.86 49.95 206.71 48.96 205.85 49.95 204.99 48.96 195.45 57.22 195.45 57.17 195.45 55.86 131.57 55.86 131.57 44.04 195.45 44.04 195.45 42.68 204.99 50.94 205.85 49.95 204.99 48.96 205.85 49.95"/>
      <polygon class="cls-4" points="205.85 49.95 194.14 39.8 194.14 42.73 130.26 42.73 130.26 57.17 194.14 57.17 194.14 60.09 205.85 49.95"/>
      <polygon class="cls-5" points="55.35 31.91 43.64 21.77 43.64 24.69 37.33 24.69 37.33 39.13 43.64 39.13 43.64 42.05 55.35 31.91"/>
      <path class="cls-2" d="M157.57,52c.81,0,1.09,0,1.15,0s.11,0,.11.12v.64c0,.12,0,.13-.11.13s-.34,0-1.15,0h-.1c0,1,0,1.54,0,1.58s0,.12-.12.12h-.73c-.11,0-.12,0-.12-.12s0-.62,0-1.58h-.32c-.82,0-1.08,0-1.14,0s-.12,0-.12-.13v-.64c0-.11,0-.12.12-.12s.32,0,1.14,0h.32v-.73h-.09c-.71,0-.94,0-1,0s-.11,0-.11-.1,0-.35,0-1V48.61c0-.64,0-.92,0-1s0-.12.11-.12.31,0,1,0h.09v-.69h-.26c-.82,0-1.07,0-1.13,0s-.13,0-.13-.12v-.66c0-.1,0-.11.13-.11s.31,0,1.13,0h.26a9,9,0,0,0-.07-1.1,8.26,8.26,0,0,1,1,.07c.1,0,.16,0,.16.11l-.06.2a1.89,1.89,0,0,0-.06.69v0h.17c.81,0,1.08,0,1.14,0s.13,0,.13.11v.66c0,.11,0,.12-.13.12s-.32,0-1.13,0h-.18v.69h.07c.73,0,1,0,1,0s.12,0,.12.12v0a6.3,6.3,0,0,0,2.26-2.24,2.08,2.08,0,0,0,.25-.59,9.6,9.6,0,0,1,1,.18c.1,0,.16.07.16.13a.25.25,0,0,1-.16.2,6.37,6.37,0,0,0,2.68,2.14,2.47,2.47,0,0,0-.41.7c-.07.17-.11.25-.18.25s-.11,0-.24-.12a8.72,8.72,0,0,1-.89-.62v.65c0,.11,0,.12-.12.12s-.25,0-.89,0h-.89c-.65,0-.83,0-.89,0s-.12,0-.12-.12v-.56a7.16,7.16,0,0,1-.79.6c-.11.08-.17.12-.23.12s-.11-.07-.21-.23a3.34,3.34,0,0,0-.35-.45c0,.16,0,.41,0,.79v1.55c0,.64,0,.92,0,1s0,.1-.12.1-.29,0-1,0h-.07V52Zm-1-2.92v-.82h-.46V49Zm0,1.5v-.83h-.46v.83Zm.8-2.32V49h.47v-.82Zm.47,1.49h-.47v.83h.47Zm3.7,2.33c0,.47,0,1,0,1.36a1.11,1.11,0,0,1-.19.81.9.9,0,0,1-.62.19c-.33,0-.33,0-.38-.3a2.47,2.47,0,0,0-.2-.58l.34,0c.13,0,.18,0,.18-.24v-.83H160v.69c0,.78,0,1.16,0,1.21s0,.12-.13.12h-.65c-.1,0-.11,0-.11-.12s0-.4,0-1.2V50.39c0-.81,0-1.16,0-1.24s0-.1.11-.1.22,0,.77,0h.7c.56,0,.72,0,.77,0s.12,0,.12.1,0,.5,0,1.33ZM160,49.81v.61h.73v-.61Zm.73,2v-.64H160v.64Zm1.41-4.21H163a7.27,7.27,0,0,1-1.3-1.46,7.65,7.65,0,0,1-1.2,1.46h1.67ZM162,50.5a8.62,8.62,0,0,0-.06-1.39l.88,0c.1,0,.14.06.14.12l-.06.22a6,6,0,0,0,0,1v1c0,.67,0,1,0,1s0,.12-.13.12h-.66c-.11,0-.12,0-.12-.12s0-.36,0-1ZM164.27,52c0,.58,0,1.07,0,1.51s-.08.59-.31.75a1.63,1.63,0,0,1-.88.16c-.33,0-.33,0-.39-.31a2.46,2.46,0,0,0-.21-.63,4.14,4.14,0,0,0,.54,0c.22,0,.3-.06.3-.31v-3a7.53,7.53,0,0,0-.08-1.34,9.61,9.61,0,0,1,1,.07c.1,0,.17.06.17.11l-.08.2a3.37,3.37,0,0,0,0,.95Z"/>
      <path class="cls-2" d="M168,52.18a1.61,1.61,0,0,0,.87.87,6.25,6.25,0,0,0,2,.21c1.35,0,2.95-.07,4.51-.22a1.86,1.86,0,0,0-.28.81c-.06.33-.06.33-.39.35-1.34.08-2.58.1-3.68.1a7.13,7.13,0,0,1-2.45-.3,2,2,0,0,1-1-.93,12.4,12.4,0,0,1-1.08.92,1,1,0,0,0-.21.21l-.16.1-.15-.13c-.14-.27-.28-.61-.43-1a5.88,5.88,0,0,0,.62-.32,6.38,6.38,0,0,0,.88-.67V49.86h-.49c-.57,0-.71,0-.77,0s-.12,0-.12-.13V49c0-.1,0-.11.12-.11s.2,0,.77,0h.64c.56,0,.73,0,.79,0s.11,0,.11.11,0,.36,0,1Zm-1.52-6.91c.11-.08.14-.09.22,0A9.14,9.14,0,0,1,168,46.8c.06.09.06.13-.06.21l-.59.47-.12.07-.1-.08a9.09,9.09,0,0,0-1.29-1.62c-.07-.09-.06-.12,0-.19Zm3.65,4.51c-1,0-1.35,0-1.41,0s-.12,0-.12-.11v-.75c0-.1,0-.11.12-.11s.39,0,1.41,0H171a11.49,11.49,0,0,0,0-1.2h-.74c-1,0-1.32,0-1.38,0s-.11,0-.11-.11v-.74c0-.11,0-.12.11-.12s.38,0,1.27,0a4.9,4.9,0,0,0-.71-1.23c-.07-.1,0-.13.08-.17l.7-.28c.14-.06.15-.06.22,0a6.68,6.68,0,0,1,.69,1.13c0,.11,0,.15-.11.2l-.79.31h1.55a10.55,10.55,0,0,0,.65-1.2,2.83,2.83,0,0,0,.17-.59,9.45,9.45,0,0,1,1.09.31l.13.14-.12.19a.64.64,0,0,0-.2.24c-.19.34-.36.62-.55.91h.08c1,0,1.33,0,1.39,0s.12,0,.12.12v.74c0,.1,0,.11-.12.11s-.4,0-1.39,0h-1a10.78,10.78,0,0,1-.07,1.2h1.28c1,0,1.36,0,1.42,0s.12,0,.12.11v.75c0,.1,0,.11-.12.11s-.41,0-1.42,0h-1.1a4.35,4.35,0,0,0,2.82,2,2.68,2.68,0,0,0-.41.72c-.08.21-.12.3-.21.3a.79.79,0,0,1-.23-.07,4.62,4.62,0,0,1-2.53-2.15,4.24,4.24,0,0,1-2.26,2.11.68.68,0,0,1-.25.09c-.09,0-.12-.08-.22-.26a2.43,2.43,0,0,0-.51-.61c1.39-.52,2.12-1.06,2.44-2.12Z"/>
      <path class="cls-3" d="M3.93,51.06c-.55,0-1.11.09-1.85.09-.19,0-.24-.07-.26-.23s-.08-.57-.12-1a4.86,4.86,0,0,0,.85.06C3,50,3.49,50,4,49.93c0-.36,0-.78,0-1.26a3.88,3.88,0,0,0-.08-.89,6.49,6.49,0,0,1,1.31.2c.14,0,.22.11.22.21l-.06.18a1.4,1.4,0,0,0-.16.43c0,.28,0,.56-.05.91a10.7,10.7,0,0,0,1.41-.41c.1,0,.17,0,.18.1a4.91,4.91,0,0,1,.07.86c0,.11,0,.14-.14.18a11.21,11.21,0,0,1-1.58.41c0,.53,0,1.07,0,1.6a7,7,0,0,1,2.71-.61A2.18,2.18,0,0,1,10.11,54a2.13,2.13,0,0,1-2.39,2.24,4.66,4.66,0,0,1-.9-.1.31.31,0,0,1-.24-.33,1.94,1.94,0,0,0-.33-.94,4,4,0,0,0,1.38.2A1.09,1.09,0,0,0,8.81,54c0-.72-.44-1.11-1.21-1.11a5.49,5.49,0,0,0-2.52.74c0,.47,0,.84,0,1.32s.09,1.18.09,1.43,0,.32-.17.37a4.86,4.86,0,0,1-.81.13c-.12,0-.17-.08-.27-.22a6.75,6.75,0,0,0-1.56-1.41,3.07,3.07,0,0,0-.35.24l-.19.08a.32.32,0,0,1-.24-.17c-.12-.2-.34-.67-.51-1a4.2,4.2,0,0,0,1-.38l1.79-1Zm-1,3.79a11,11,0,0,0,1,.49c.09,0,.12,0,.11-.09C4,55,4,54.46,4,54.1,3.68,54.31,3.3,54.56,2.91,54.85Zm5.26-5.78c.07-.12.1-.15.18-.13a5.28,5.28,0,0,1,2.33,1.34l.07.11,0,.11c-.15.22-.43.56-.6.78H9.89a5.06,5.06,0,0,0-2.23-1.35A6.27,6.27,0,0,1,8.17,49.07Z"/>
      <path class="cls-3" d="M20,48.17c1,0,1.38,0,1.45,0s.12,0,.12.12,0,.25,0,.53v.45c0,.93,0,1.11,0,1.17s0,.12-.12.12h-.9c-.11,0-.12,0-.12-.12V49.14H15.72a7.24,7.24,0,0,1,.89.22c.1,0,.16.06.16.13l-.14.15a1.13,1.13,0,0,0-.21.22l-.08.11h2.33a.72.72,0,0,0,.27,0l.16,0c.07,0,.16,0,.44.34s.31.37.31.48,0,.14-.15.19a2,2,0,0,0-.38.32A12.61,12.61,0,0,1,18,52.33a16.86,16.86,0,0,0,4.09.92,2.59,2.59,0,0,0-.42.83c-.09.27-.09.27-.43.21S20.4,54.12,20,54c0,.13,0,.38,0,.78v.87c0,1.15,0,1.43,0,1.49s0,.12-.12.12H19c-.11,0-.12,0-.12-.12v-.34H15v.32c0,.12,0,.13-.12.13H14c-.12,0-.13,0-.13-.13s0-.35,0-1.47v-.75c0-.37,0-.62,0-.78-.35.1-.7.19-1.09.28s-.34.07-.46-.21a2.19,2.19,0,0,0-.42-.69A15.57,15.57,0,0,0,16,52.37a9.4,9.4,0,0,1-1.17-.91,10.71,10.71,0,0,1-1.35.81.83.83,0,0,1-.26.11c-.07,0-.1-.05-.18-.17a1.83,1.83,0,0,0-.53-.59,7.18,7.18,0,0,0,2.84-2,2.82,2.82,0,0,0,.33-.51H13.39v1.28c0,.11,0,.12-.12.12h-.9c-.11,0-.13,0-.13-.12s0-.24,0-1.17v-.37c0-.36,0-.54,0-.61s0-.12.13-.12.42,0,1.45,0h2.42V48a3.22,3.22,0,0,0-.08-.82c.39,0,.8,0,1.18.06.12,0,.17.06.17.11l-.06.21a1.36,1.36,0,0,0-.06.45v.17Zm-.64,5.68A13.31,13.31,0,0,1,17,52.94a13.51,13.51,0,0,1-2.12.91ZM15,55.91h3.92V54.74H15Zm.52-5a7.61,7.61,0,0,0,1.44,1,8.82,8.82,0,0,0,1.3-1H15.51Z"/>
      <path class="cls-3" d="M28,52.65c-1.06,0-1.43,0-1.5,0s-.12,0-.12-.12v0a3.16,3.16,0,0,0-.3.58c-.05.13-.09.19-.13.19s-.08-.05-.14-.17a6.34,6.34,0,0,1-.54-1.35c0,2.87.07,5.2.07,5.38s0,.12-.12.12h-.87c-.11,0-.12,0-.12-.12s.06-2.28.07-4.8a8.5,8.5,0,0,1-.92,2.22c-.07.11-.13.18-.17.18s-.08-.06-.11-.18a3,3,0,0,0-.38-.82,9.26,9.26,0,0,0,1.51-3.45H24.1c-.72,0-.94,0-1,0s-.12,0-.12-.13v-.76c0-.12,0-.13.12-.13s.29,0,1,0h.17v-.65a7.67,7.67,0,0,0-.09-1.47,8.21,8.21,0,0,1,1.07.08c.11,0,.17,0,.17.12l-.06.23a2.94,2.94,0,0,0-.07,1v.66c.64,0,.85,0,.91,0s.11,0,.11.13v.76c0,.12,0,.13-.11.13s-.27,0-.89,0a7.74,7.74,0,0,0,1.06,2v-.51c0-.11,0-.12.12-.12s.44,0,1.5,0h.81v-.67h-.51c-1,0-1.3,0-1.37,0s-.12,0-.12-.12v-.68c0-.12,0-.13.12-.13s.4,0,1.37,0h.51V49.5h-.66c-1,0-1.39,0-1.45,0s-.12,0-.12-.11v-.7c0-.11,0-.12.12-.12s.36,0,1.14,0a10.14,10.14,0,0,0-.49-.93c-.07-.09-.05-.13.07-.18l.67-.26c.13,0,.14,0,.21.06a5.2,5.2,0,0,1,.53.9c.06.11,0,.13-.1.19l-.59.22h1.64c.15-.3.33-.65.45-.94a1.89,1.89,0,0,0,.13-.48,9.59,9.59,0,0,1,.95.22c.11,0,.17.08.17.15l-.11.17-.15.2c-.1.19-.23.45-.37.68h.06c1,0,1.38,0,1.44,0s.13,0,.13.12v.7c0,.1,0,.11-.13.11s-.42,0-1.44,0h-1v.66h.78c1,0,1.31,0,1.37,0s.12,0,.12.13V51c0,.11,0,.12-.12.12s-.38,0-1.37,0h-.78v.67h1.34c1.05,0,1.42,0,1.48,0s.12,0,.12.12v.73c0,.11,0,.12-.12.12s-.43,0-1.48,0H30a8,8,0,0,0,.71,1.21,8.38,8.38,0,0,0,.7-.66,1.7,1.7,0,0,0,.28-.39,6.48,6.48,0,0,1,.7.54l.12.19c0,.06,0,.11-.14.14a.85.85,0,0,0-.33.21c-.21.2-.44.42-.75.67a7.45,7.45,0,0,0,1.75,1.3,2.32,2.32,0,0,0-.53.65c-.09.15-.13.22-.18.22s-.13-.06-.25-.15a6.48,6.48,0,0,1-2.29-2.73c0,.94.05,1.69.05,2.18a1,1,0,0,1-.35.94,2,2,0,0,1-1.2.22c-.35,0-.35,0-.43-.34a2.63,2.63,0,0,0-.29-.7c.34,0,.53,0,.78,0s.41-.08.41-.36v-.77a21.89,21.89,0,0,1-2,1.1.82.82,0,0,0-.34.22l-.16.1-.12-.13c-.12-.26-.24-.55-.38-.93a4.34,4.34,0,0,0,.64-.22A21.08,21.08,0,0,0,28.8,54V52.65Zm-.36,1.7c-.11.11-.15.12-.22,0a4.36,4.36,0,0,0-.91-.91c-.1-.06-.09-.1,0-.2l.42-.41c.11-.1.14-.1.23,0a4.24,4.24,0,0,1,.94.84l0,.21Z"/>
      <path class="cls-3" d="M756.05,55.38a6.32,6.32,0,0,0,0-.76,5.59,5.59,0,0,1,.92.19c.15,0,.21.09.21.14l-.06.18a1.29,1.29,0,0,0-.1.44,14.85,14.85,0,0,1-.39,2.16c-.07.2-.09.29-.16.29s-.14-.06-.28-.14a3.11,3.11,0,0,0-.67-.31A6.64,6.64,0,0,0,756.05,55.38Zm.5-1.34a1.17,1.17,0,0,0-.46.1l-.18,0c-.08,0-.13-.07-.15-.19-.06-.31-.11-.63-.15-1a7,7,0,0,0,.89.05c.23-.3.46-.61.67-.92a12.93,12.93,0,0,0-1.56-1.75l-.06-.11.09-.16.45-.59c.1-.12.14-.13.22,0l.29.3a11.6,11.6,0,0,0,.73-1.35,3.11,3.11,0,0,0,.21-.63,8.35,8.35,0,0,1,1,.43c.11.06.16.12.16.19l-.11.16a.59.59,0,0,0-.23.29c-.37.63-.65,1.12-1,1.69.16.2.33.39.49.6.29-.46.56-.93.83-1.39A5.13,5.13,0,0,0,759,49c.31.13.71.28,1,.44.11.06.14.1.14.17s0,.13-.13.19a1.78,1.78,0,0,0-.37.47c-.64,1-1.29,2-1.87,2.71l1.29-.09c-.08-.24-.18-.48-.27-.71s0-.15.12-.21l.54-.22c.13-.06.15,0,.2.08a9.92,9.92,0,0,1,.72,2.11V52.07c0-1.26,0-1.84,0-1.93s0-.13.13-.13.45,0,1.52,0h.64v-.91a7,7,0,0,0-.09-1.2c.45,0,.78,0,1.2.09.11,0,.18.07.18.13a1,1,0,0,1-.07.25,2,2,0,0,0-.06.73V50h.77c1.06,0,1.45,0,1.52,0s.13,0,.13.13,0,.73,0,2v3.3c0,1,0,1.57,0,2a1.26,1.26,0,0,1-.32,1c-.24.23-.47.3-1.63.31-.39,0-.39,0-.45-.37a2.84,2.84,0,0,0-.3-.82c.46,0,.81.05,1.11.05s.43-.07.43-.42V54.94a4.29,4.29,0,0,0-.39.77c0,.13-.08.19-.14.19s-.11-.06-.2-.19A7.22,7.22,0,0,1,763.24,53a9.28,9.28,0,0,1-1,2.79c-.07.14-.13.21-.19.21s-.12-.07-.18-.21a4.17,4.17,0,0,0-.45-.74v1.91c0,1.15,0,1.7,0,1.76s0,.14-.12.14h-.91c-.12,0-.13,0-.13-.14s0-.65,0-1.91V54.12l-.12.08-.59.21c-.17.06-.19.06-.21-.08l-.14-.54-.68.07v3.29c0,1.1,0,1.51,0,1.57s0,.13-.13.13h-.91c-.12,0-.13,0-.13-.13s0-.47,0-1.57V54Zm3,.56c.16,0,.17,0,.2.1a13.08,13.08,0,0,1,.42,2.19c0,.16,0,.16-.14.21l-.59.18c-.18.06-.2,0-.21-.11a12.5,12.5,0,0,0-.33-2.24c0-.12,0-.15.13-.18Zm2-3.5v3.74a7.35,7.35,0,0,0,1.16-3.74Zm3.58,0h-1.3a7,7,0,0,0,1.3,3.58Z"/>
      <path class="cls-3" d="M768.2,58.81c-.12,0-.13,0-.13-.14s0-.41,0-2.24V55.31c0-1.15,0-1.49,0-1.57s0-.13.13-.13.38,0,1.27,0H771c.9,0,1.2,0,1.29,0s.13,0,.13.13,0,.42,0,1.37v1.26c0,1.8,0,2.14,0,2.21s0,.14-.13.14h-.94c-.11,0-.12,0-.12-.14v-.49h-2v.58c0,.13,0,.14-.13.14ZM769.28,57h2V54.76h-2Zm5.47-8.66c1.14,0,1.52,0,1.61,0s.13,0,.13.14,0,.39,0,1.11v1.74c0,.72,0,1,0,1.1s0,.15-.13.15-.47,0-1.61,0h-3.31c-1.13,0-1.52,0-1.6,0s-.13,0-.13-.15,0-.38,0-1.1V49.54c0-.72,0-1,0-1.11s0-.14.13-.14.47,0,1.6,0Zm-3.78,3h4.26V49.47H771Zm2.72,7.46c-.1,0-.12,0-.12-.13s0-.42,0-2.25V55.31c0-1.14,0-1.49,0-1.56s0-.14.12-.14.4,0,1.32,0h1.66c.92,0,1.23,0,1.31,0s.13,0,.13.14,0,.42,0,1.38v1.28c0,1.8,0,2.14,0,2.21s0,.15-.13.15h-1c-.12,0-.13,0-.13-.15v-.53h-2.14v.59c0,.12,0,.13-.13.13ZM774.76,57h2.14V54.76h-2.14Z"/>
      <path class="cls-3" d="M787,56.79c0,.39,0,.49.1.58s.39.17.87.17.84-.09,1-.26.29-.63.3-1.63a2.88,2.88,0,0,0,.88.36c.3.07.3.07.29.37a2.54,2.54,0,0,1-.59,1.81c-.34.35-.79.52-2,.52s-1.61-.14-1.85-.36-.28-.45-.28-1.17v-3.3h-1.46a5.31,5.31,0,0,1-.85,3,5,5,0,0,1-2.56,1.88,1.41,1.41,0,0,1-.28.08c-.1,0-.14-.08-.25-.29a3.75,3.75,0,0,0-.64-.78,4.37,4.37,0,0,0,2.63-1.51,4,4,0,0,0,.7-2.39h-1.54c-1.08,0-1.44,0-1.51,0s-.14,0-.14-.13v-.94c0-.11,0-.12.14-.12s.43,0,1.51,0h2.95V51h-2.29a9.54,9.54,0,0,1-.85,1.1c-.12.13-.19.21-.25.21s-.14-.08-.27-.21a3,3,0,0,0-.7-.51,7.57,7.57,0,0,0,1.76-2.52,3.11,3.11,0,0,0,.29-1,8.16,8.16,0,0,1,1.11.35c.11,0,.19.11.19.18l-.1.18a.81.81,0,0,0-.22.35c-.11.24-.2.48-.31.69h1.64v-.66a6.51,6.51,0,0,0-.08-1.33c.45,0,.86.05,1.28.1.11,0,.19.06.19.13a.64.64,0,0,1-.07.24,2.06,2.06,0,0,0-.07.79v.73h1.89c1.17,0,1.57,0,1.65,0s.13,0,.13.14v.9c0,.12,0,.13-.13.13s-.48,0-1.65,0h-1.89v1.71h3.1c1.07,0,1.44,0,1.52,0s.12,0,.12.12v.94c0,.12,0,.13-.12.13s-.45,0-1.52,0H787Z"/>
      <polygon class="cls-5" points="133.92 12.8 56.37 12.8 56.37 7.37 95.15 0 133.92 7.37 133.92 12.8"/>
      <rect class="cls-5" x="56.37" y="53.77" width="77.55" height="3.4"/>
      <rect class="cls-5" x="60.04" y="11.24" width="70.22" height="44.24"/>
      <path class="cls-2" d="M81.48,35.11a10,10,0,0,1-2.36,3.6c-.16.18-.25.27-.34.27s-.18-.1-.34-.34a4.08,4.08,0,0,0-1.1-1.06,7.8,7.8,0,0,0,2.45-3.26,10.2,10.2,0,0,0,.58-3.94c0-.94,0-1.48,0-1.64-.63.34-1.3.68-2,1a1,1,0,0,1-.4.13c-.16,0-.21-.15-.36-.49a2.88,2.88,0,0,0-.72-1.06,19.65,19.65,0,0,0,7-4.34,5.1,5.1,0,0,0,.74-1,18.46,18.46,0,0,1,1.89.32c.21,0,.32.09.32.2s-.09.16-.29.25a20.89,20.89,0,0,0,7.57,4.34,3.25,3.25,0,0,0-.67,1.13c-.13.36-.18.51-.34.51a1.47,1.47,0,0,1-.4-.13A25.11,25.11,0,0,1,87.93,27v.67c0,.18,0,.2-.2.2s-.43,0-1.51,0H84.7c-1.08,0-1.4,0-1.51,0s-.2,0-.2-.2v-.61a23.25,23.25,0,0,1-2.41,1.55c.2,0,.81,0,2.34,0h5c1.7,0,2.29,0,2.4,0s.2,0,.2.18,0,.5,0,1.53v2.17c0,1,0,1.41,0,1.52s0,.18-.2.18-.7,0-2.4,0H81.79a5.66,5.66,0,0,1-.27.88s.07,0,.18,0,.72,0,2.41,0H89c1.7,0,2.31,0,2.42,0s.21,0,.21.2,0,.48,0,1.06v1c0,1.76,0,2.09,0,2.18s0,.19-.21.19H89.84c-.18,0-.2,0-.2-.19V39H83.37v.47c0,.18,0,.19-.2.19H81.7c-.2,0-.22,0-.22-.19s0-.44,0-2.22v-.84c0-.78,0-1.14,0-1.26Zm7.22-3.17H82.15c0,.33-.06.62-.09.9H88.7Zm-6.5-2.05v.83h6.5v-.83Zm1.17,7.73h6.27V36.43H83.37Zm2.85-11c.54,0,.88,0,1.11,0a15.22,15.22,0,0,1-1.91-1.67,19.7,19.7,0,0,1-1.81,1.69Z"/>
      <path class="cls-2" d="M100.87,37.78c-1.75,0-2.34,0-2.45,0s-.22,0-.22-.18V36.55c0-.19,0-.21.22-.21s.7,0,2.45,0h2.9v-1h-1.52c-1.72,0-2.3,0-2.43,0s-.19,0-.19-.22,0-.54,0-1.57v-2.3c0-1,0-1.44,0-1.55s0-.21.19-.21.71,0,2.43,0h1.52v-.95h-2.06c-1.76,0-2.37,0-2.48,0s-.2,0-.2-.19V27.44c0-.19,0-.21.2-.21s.72,0,2.48,0h2.06V26.18H98.29v3.23a32.28,32.28,0,0,1-.36,5.51,13,13,0,0,1-1.35,4.26c-.12.24-.2.34-.27.34s-.14-.09-.3-.28a5,5,0,0,0-1.12-1,9.53,9.53,0,0,0,1.28-3.47,32.81,32.81,0,0,0,.34-5.84c0-2.75,0-4,0-4.09s0-.19.2-.19.71,0,2.41,0h3.71v-.27a4.83,4.83,0,0,0-.1-1.24c.66,0,1.24,0,1.87.07.2,0,.29.11.29.22a1.35,1.35,0,0,1-.11.32,1.72,1.72,0,0,0-.09.65v.25h4c1.69,0,2.29,0,2.39,0s.18,0,.18.19V26c0,.18,0,.2-.18.2s-.7,0-2.39,0h-3.15v1.08h2.72c1.76,0,2.37,0,2.48,0s.2,0,.2.21v1.07c0,.18,0,.19-.2.19s-.72,0-2.48,0h-2.72v.95h1.65c1.7,0,2.29,0,2.4,0s.21,0,.21.21,0,.54,0,1.55v2.3c0,1,0,1.46,0,1.57s0,.22-.21.22-.7,0-2.4,0h-1.65v1h3.29c1.77,0,2.38,0,2.47,0s.2,0,.2.21v1.08c0,.17,0,.18-.2.18s-.7,0-2.47,0h-3.29c0,1.13,0,1.73,0,1.8s0,.2-.19.2H104c-.2,0-.22,0-.22-.2s0-.67,0-1.8Zm2.9-5.87v-1h-2.49v1Zm0,2.21v-1h-2.49v1Zm1.71-3.24v1H108v-1Zm2.55,2.2h-2.55v1H108Z"/>
      <path class="cls-3" d="M786.66,43.12H784V10.18a1.35,1.35,0,0,0-1.34-1.35H772.58V5.47a1.35,1.35,0,0,0-1.35-1.34H761.9a1.34,1.34,0,0,0-1.34,1.34V8.83h-1.09a1.35,1.35,0,0,0-1.35,1.35V43.12h-2.65a1.37,1.37,0,0,0-1.38,1.28,1.34,1.34,0,0,0,1.34,1.41H765a.68.68,0,0,0,.68-.67V37.41h-.55a1.38,1.38,0,0,1-1.39-1.28,1.35,1.35,0,0,1,1.35-1.41H777a1.35,1.35,0,1,1,0,2.69h-.59v7.73a.67.67,0,0,0,.67.67h9.58A1.35,1.35,0,0,0,788,44.4,1.38,1.38,0,0,0,786.66,43.12ZM767.79,31.94h-1.52a1.35,1.35,0,0,1,0-2.69h1.52a1.35,1.35,0,0,1,0,2.69Zm0-5h-1.52a1.35,1.35,0,0,1,0-2.69h1.52a1.35,1.35,0,0,1,0,2.69Zm0-5h-1.52a1.35,1.35,0,0,1,0-2.69h1.52a1.35,1.35,0,0,1,0,2.69Zm0-5h-1.52a1.35,1.35,0,0,1,0-2.69h1.52a1.35,1.35,0,0,1,0,2.69Zm8,15.12h-1.51a1.35,1.35,0,1,1,0-2.69h1.51a1.35,1.35,0,0,1,0,2.69Zm0-5h-1.51a1.35,1.35,0,1,1,0-2.69h1.51a1.35,1.35,0,0,1,0,2.69Zm0-5h-1.51a1.35,1.35,0,1,1,0-2.69h1.51a1.35,1.35,0,0,1,0,2.69Zm0-5h-1.51a1.35,1.35,0,1,1,0-2.69h1.51a1.35,1.35,0,0,1,0,2.69Zm-7.39,28.32V38.08a.67.67,0,0,1,.67-.67h4a.67.67,0,0,1,.67.67v7.06a.67.67,0,0,1-.67.67h-4A.67.67,0,0,1,768.38,45.14Z"/>
      <path class="cls-4" d="M295.69,20.38a.42.42,0,0,0-.6-.06l-2.45,2a.43.43,0,1,0,.55.66l2.44-2A.42.42,0,0,0,295.69,20.38Z"/>
      <path class="cls-4" d="M298.66,15.83a3.54,3.54,0,0,0-3.37-2.43h-9.62a2,2,0,0,0-2,2V24.5h-.77a4.09,4.09,0,0,0-4.09,4.09V34h1a4.53,4.53,0,0,1,8.88,0h2.92a5.51,5.51,0,0,1,10.16-2.94V25Zm-3.06,5.8-1.77,1.45,3.07,4.21h-3.81l-1.77-2.79h-4.89V16.2h8.86a.77.77,0,0,1,.72.51l2.8,8.46Z"/>
      <path class="cls-4" d="M297.05,32.09A1.92,1.92,0,0,1,299,34h2.51a4.43,4.43,0,1,0-8.86,0h2.51A1.92,1.92,0,0,1,297.05,32.09Z"/>
      <path class="cls-4" d="M299,34a1.92,1.92,0,1,1-3.84,0h-2.51a4.43,4.43,0,1,0,8.86,0Z"/>
      <path class="cls-4" d="M280.88,36a3.07,3.07,0,0,1-.14-.67A3.07,3.07,0,0,0,280.88,36Z"/>
      <path class="cls-4" d="M280.75,34.55l0-.16Z"/>
      <polygon class="cls-4" points="280.85 34.01 280.85 34.02 280.85 34.01 280.85 34.01"/>
      <path class="cls-4" d="M280.79,34.27l0-.17Z"/>
      <path class="cls-4" d="M287.62,35.28a5,5,0,0,1-.14.67A5,5,0,0,0,287.62,35.28Z"/>
      <path class="cls-4" d="M287.48,36a3.42,3.42,0,0,1-.64,1.17A3.42,3.42,0,0,0,287.48,36Z"/>
      <path class="cls-4" d="M281.51,37.12a3.4,3.4,0,0,1-.63-1.17A3.4,3.4,0,0,0,281.51,37.12Z"/>
      <polygon class="cls-4" points="287.51 34.01 287.51 34.01 287.51 34.02 287.51 34.01"/>
      <path class="cls-4" d="M285.82,38a3.38,3.38,0,0,1-.95.35A3.38,3.38,0,0,0,285.82,38Z"/>
      <path class="cls-4" d="M283.48,38.31a3.38,3.38,0,0,1-1-.35A3.38,3.38,0,0,0,283.48,38.31Z"/>
      <path class="cls-4" d="M280.72,34.92a2.45,2.45,0,0,1,0-.27A2.45,2.45,0,0,0,280.72,34.92Z"/>
      <path class="cls-4" d="M287.59,34.39l0,.16Z"/>
      <path class="cls-4" d="M287.62,34.65a2.44,2.44,0,0,1,0,.27A2.44,2.44,0,0,0,287.62,34.65Z"/>
      <path class="cls-4" d="M281.51,37.12a3.48,3.48,0,0,0,.47.47A3.48,3.48,0,0,1,281.51,37.12Z"/>
      <path class="cls-4" d="M286.38,37.59a3.41,3.41,0,0,0,.46-.47A3.41,3.41,0,0,1,286.38,37.59Z"/>
      <path class="cls-4" d="M287.53,34.1l0,.17Z"/>
      <path class="cls-4" d="M284.18,33.63a1.33,1.33,0,0,1,.92.38h2.41l-.09-.26h0a3.53,3.53,0,0,0-.69-1.15l-.05,0-.15-.15-.07-.06-.15-.13-.09-.07-.15-.1L286,32l-.22-.12-.18-.09-.12,0-.17-.07-.13,0-.18,0-.13,0-.21,0-.11,0h-.65l-.11,0-.21,0-.12,0-.19,0-.12,0-.18.07-.12,0-.17.09-.22.12-.13.08-.15.1-.09.07-.15.13-.07.06-.15.15,0,0a3.36,3.36,0,0,0-.69,1.15h0l-.08.26h2.41A1.31,1.31,0,0,1,284.18,33.63Z"/>
      <path class="cls-4" d="M287.51,34l0,.08Z"/>
      <path class="cls-4" d="M280.83,34.1l0-.08Z"/>
      <path class="cls-4" d="M287.57,34.27l0,.12Z"/>
      <path class="cls-4" d="M280.74,34.65v0Z"/>
      <path class="cls-4" d="M287.61,34.55v0Z"/>
      <path class="cls-4" d="M280.77,34.39l0-.12Z"/>
      <path class="cls-4" d="M287.62,34.65v-.1l0-.16,0-.12,0-.17,0-.08H285.1a1.31,1.31,0,0,1,.37.91,1.29,1.29,0,1,1-2.58,0,1.31,1.31,0,0,1,.37-.91h-2.41l0,.08,0,.17,0,.12,0,.16v.1a2.45,2.45,0,0,0,0,.27c0,.12,0,.24,0,.36a3.07,3.07,0,0,0,.14.67,3.4,3.4,0,0,0,.63,1.17,3.48,3.48,0,0,0,.47.47,3.53,3.53,0,0,0,.55.37,3.38,3.38,0,0,0,1,.35,4.05,4.05,0,0,0,.7.07,3.84,3.84,0,0,0,.69-.07,3.38,3.38,0,0,0,.95-.35,3.62,3.62,0,0,0,.56-.37,3.65,3.65,0,0,0,1.1-1.64,5,5,0,0,0,.14-.67c0-.12,0-.24,0-.36A2.44,2.44,0,0,0,287.62,34.65Z"/>
      <polygon class="cls-4" points="304.65 35.25 304.65 13.4 302.3 13.4 302.3 37.59 302.94 37.59 304.65 37.59 316 37.59 316 35.25 304.65 35.25"/>
      <rect class="cls-4" x="306.67" y="26.68" width="9.33" height="7.33"/>
      <path class="cls-4" d="M431.68,20.38a.43.43,0,0,0-.61-.06l-2.44,2a.43.43,0,1,0,.54.66l2.44-2A.42.42,0,0,0,431.68,20.38Z"/>
      <path class="cls-4" d="M434.65,15.83a3.56,3.56,0,0,0-3.38-2.43h-9.61a2.05,2.05,0,0,0-2.05,2V24.5h-.76a4.1,4.1,0,0,0-4.1,4.09V34h1a4.53,4.53,0,0,1,8.88,0h2.92a5.51,5.51,0,0,1,10.16-2.94V25Zm-3.06,5.8-1.78,1.45,3.08,4.21h-3.82l-1.76-2.79h-4.9V16.2h8.86a.76.76,0,0,1,.72.51l2.8,8.46Z"/>
      <path class="cls-4" d="M433,32.09A1.92,1.92,0,0,1,435,34h2.51a4.43,4.43,0,0,0-8.1-2.47A4.37,4.37,0,0,0,428.6,34h2.51A1.92,1.92,0,0,1,433,32.09Z"/>
      <path class="cls-4" d="M435,34a1.92,1.92,0,0,1-3.84,0H428.6a4.43,4.43,0,0,0,8.86,0Z"/>
      <path class="cls-4" d="M416.86,36a3.8,3.8,0,0,1-.14-.67A3.8,3.8,0,0,0,416.86,36Z"/>
      <path class="cls-4" d="M416.73,34.55l0-.16Z"/>
      <polygon class="cls-4" points="416.83 34.01 416.83 34.02 416.83 34.01 416.83 34.01"/>
      <path class="cls-4" d="M416.77,34.27l0-.17Z"/>
      <path class="cls-4" d="M423.6,35.28a3.8,3.8,0,0,1-.14.67A3.8,3.8,0,0,0,423.6,35.28Z"/>
      <path class="cls-4" d="M423.46,36a3.4,3.4,0,0,1-.63,1.17A3.4,3.4,0,0,0,423.46,36Z"/>
      <path class="cls-4" d="M417.49,37.12a3.58,3.58,0,0,1-.63-1.17A3.58,3.58,0,0,0,417.49,37.12Z"/>
      <polygon class="cls-4" points="423.49 34.01 423.49 34.01 423.49 34.02 423.49 34.01"/>
      <path class="cls-4" d="M421.81,38a3.62,3.62,0,0,1-.95.35A3.62,3.62,0,0,0,421.81,38Z"/>
      <path class="cls-4" d="M419.46,38.31a3.62,3.62,0,0,1-.95-.35A3.62,3.62,0,0,0,419.46,38.31Z"/>
      <path class="cls-4" d="M416.71,34.92a2.44,2.44,0,0,1,0-.27A2.44,2.44,0,0,0,416.71,34.92Z"/>
      <path class="cls-4" d="M423.57,34.39l0,.16Z"/>
      <path class="cls-4" d="M423.6,34.65a2.45,2.45,0,0,1,0,.27A2.45,2.45,0,0,0,423.6,34.65Z"/>
      <path class="cls-4" d="M417.49,37.12a4.17,4.17,0,0,0,.47.47A4.17,4.17,0,0,1,417.49,37.12Z"/>
      <path class="cls-4" d="M422.36,37.59a3.48,3.48,0,0,0,.47-.47A3.48,3.48,0,0,1,422.36,37.59Z"/>
      <path class="cls-4" d="M423.51,34.1l0,.17Z"/>
      <path class="cls-4" d="M420.16,33.63a1.33,1.33,0,0,1,.92.38h2.41l-.08-.26h0a3.36,3.36,0,0,0-.69-1.15l0,0-.15-.15-.07-.06-.15-.13-.09-.07-.15-.1-.13-.08-.22-.12-.17-.09-.12,0-.18-.07-.12,0-.19,0-.12,0-.22,0-.1,0h-.66l-.1,0-.22,0-.12,0-.18,0-.13,0-.17.07-.13,0-.17.09-.22.12-.13.08-.15.1-.09.07-.15.13-.06.06-.16.15,0,0a3.53,3.53,0,0,0-.69,1.15h0l-.08.26h2.41A1.33,1.33,0,0,1,420.16,33.63Z"/>
      <path class="cls-4" d="M423.49,34l0,.08Z"/>
      <path class="cls-4" d="M416.81,34.1l0-.08Z"/>
      <path class="cls-4" d="M423.55,34.27l0,.12Z"/>
      <path class="cls-4" d="M416.72,34.65v0Z"/>
      <path class="cls-4" d="M423.59,34.55v0Z"/>
      <path class="cls-4" d="M416.75,34.39l0-.12Z"/>
      <path class="cls-4" d="M423.6,34.65v-.1l0-.16,0-.12,0-.17,0-.08h-2.41a1.31,1.31,0,0,1,.37.91,1.29,1.29,0,1,1-2.58,0,1.31,1.31,0,0,1,.37-.91h-2.41l0,.08,0,.17,0,.12,0,.16v.1a2.44,2.44,0,0,0,0,.27c0,.12,0,.24,0,.36a3.8,3.8,0,0,0,.14.67,3.58,3.58,0,0,0,.63,1.17,4.17,4.17,0,0,0,.47.47,4.07,4.07,0,0,0,.55.37,3.62,3.62,0,0,0,.95.35,3.54,3.54,0,0,0,1.4,0,3.62,3.62,0,0,0,.95-.35,4.07,4.07,0,0,0,.55-.37,3.48,3.48,0,0,0,.47-.47,3.4,3.4,0,0,0,.63-1.17,3.8,3.8,0,0,0,.14-.67c0-.12,0-.24,0-.36A2.45,2.45,0,0,0,423.6,34.65Z"/>
      <polygon class="cls-4" points="440.63 35.25 440.63 13.4 438.29 13.4 438.29 37.59 438.92 37.59 440.63 37.59 451.98 37.59 451.98 35.25 440.63 35.25"/>
      <rect class="cls-4" x="442.65" y="26.68" width="9.33" height="7.33"/>
    </g>
  </g>
</svg>
